<!DOCTYPE svg PUBLIC "-//W3C//DTD SVG 1.1//EN" "http://www.w3.org/Graphics/SVG/1.1/DTD/svg11.dtd">
<svg width="100%" height="100%" viewBox="0 0 482 133" version="1.1" xmlns="http://www.w3.org/2000/svg" xmlns:xlink="http://www.w3.org/1999/xlink" xml:space="preserve" xmlns:serif="http://www.serif.com/" style="fill-rule:evenodd;clip-rule:evenodd;stroke-linejoin:round;stroke-miterlimit:2;">
<g><path style="opacity:1" fill="#292648" d="M 16.5,-0.5 C 33.1667,-0.5 49.8333,-0.5 66.5,-0.5C 43.4658,5.6937 26.9658,19.6937 17,41.5C 7.78949,70.7465 14.2895,95.9132 36.5,117C 46.4324,124.581 57.4324,129.748 69.5,132.5C 49.8333,132.5 30.1667,132.5 10.5,132.5C 6.8027,127.809 3.13604,123.142 -0.5,118.5C -0.5,84.5 -0.5,50.5 -0.5,16.5C 2.80174,11.5969 6.80174,7.26358 11.5,3.5C 13.7488,2.92022 15.4154,1.58689 16.5,-0.5 Z"/></g>
<g><path style="opacity:1" fill="#f5f5f5" d="M 66.5,-0.5 C 73.8333,-0.5 81.1667,-0.5 88.5,-0.5C 130.778,10.0222 149.278,37.0222 144,80.5C 135.172,110.498 115.339,127.832 84.5,132.5C 79.5,132.5 74.5,132.5 69.5,132.5C 57.4324,129.748 46.4324,124.581 36.5,117C 14.2895,95.9132 7.78949,70.7465 17,41.5C 26.9658,19.6937 43.4658,5.6937 66.5,-0.5 Z"/></g>
<g><path style="opacity:1" fill="#282547" d="M 88.5,-0.5 C 208.833,-0.5 329.167,-0.5 449.5,-0.5C 452.314,1.06972 455.314,2.40305 458.5,3.5C 467.748,8.74681 475.414,15.7468 481.5,24.5C 481.5,50.8333 481.5,77.1667 481.5,103.5C 481.167,103.5 480.833,103.5 480.5,103.5C 472.521,94.8543 464.188,86.521 455.5,78.5C 462.854,70.479 470.521,62.8123 478.5,55.5C 479.043,55.44 479.376,55.1067 479.5,54.5C 471.677,53.1801 464.01,53.1801 456.5,54.5C 450.833,59.5 445.5,64.8333 440.5,70.5C 439.833,53.5 439.167,36.5 438.5,19.5C 432.833,19.5 427.167,19.5 421.5,19.5C 421.5,47.8333 421.5,76.1667 421.5,104.5C 427.31,105.49 433.31,105.823 439.5,105.5C 439.177,98.9779 439.51,92.6446 440.5,86.5C 446.833,92.5 453.167,98.5 459.5,104.5C 466.648,105.492 473.981,105.825 481.5,105.5C 481.5,114.5 481.5,123.5 481.5,132.5C 349.167,132.5 216.833,132.5 84.5,132.5C 115.339,127.832 135.172,110.498 144,80.5C 149.278,37.0222 130.778,10.0222 88.5,-0.5 Z"/></g>
<g><path style="opacity:0.247" fill="#6d6b80" d="M 449.5,-0.5 C 450.833,-0.5 452.167,-0.5 453.5,-0.5C 455.349,0.593015 457.016,1.92635 458.5,3.5C 455.314,2.40305 452.314,1.06972 449.5,-0.5 Z"/></g>
<g><path style="opacity:0.988" fill="#838196" d="M 13.5,-0.5 C 14.5,-0.5 15.5,-0.5 16.5,-0.5C 15.4154,1.58689 13.7488,2.92022 11.5,3.5C 12.1667,2.16667 12.8333,0.833333 13.5,-0.5 Z"/></g>
<g><path style="opacity:1" fill="#080808" d="M 71.5,8.5 C 105.688,7.65866 127.188,23.6587 136,56.5C 137.962,88.7682 123.795,110.268 93.5,121C 58.6217,126.487 35.455,112.654 24,79.5C 18.9789,41.715 34.8123,18.0483 71.5,8.5 Z"/></g>
<g><path style="opacity:1" fill="#31e6fc" d="M 438.5,19.5 C 438.167,36.8461 438.5,54.1795 439.5,71.5C 440.107,71.3764 440.44,71.0431 440.5,70.5C 445.5,64.8333 450.833,59.5 456.5,54.5C 464.019,54.175 471.352,54.5084 478.5,55.5C 470.521,62.8123 462.854,70.479 455.5,78.5C 464.188,86.521 472.521,94.8543 480.5,103.5C 473.687,104.491 466.687,104.825 459.5,104.5C 453.167,98.5 446.833,92.5 440.5,86.5C 440.44,85.9569 440.107,85.6236 439.5,85.5C 438.504,91.7985 438.17,98.1318 438.5,104.5C 432.833,104.5 427.167,104.5 421.5,104.5C 421.5,76.1667 421.5,47.8333 421.5,19.5C 427.167,19.5 432.833,19.5 438.5,19.5 Z"/></g>
<g><path style="opacity:1" fill="#2c86a2" d="M 438.5,19.5 C 439.167,36.5 439.833,53.5 440.5,70.5C 440.44,71.0431 440.107,71.3764 439.5,71.5C 438.5,54.1795 438.167,36.8461 438.5,19.5 Z"/></g>
<g><path style="opacity:1" fill="#fcfcfc" d="M 86.5,22.5 C 78.4181,26.5462 77.4181,32.0462 83.5,39C 104.783,46.0677 110.95,59.9011 102,80.5C 94.3206,90.6192 84.154,94.4526 71.5,92C 65.8117,90.1507 61.145,86.8173 57.5,82C 54.8333,81.3333 52.1667,81.3333 49.5,82C 46.4606,84.5119 44.1272,87.3452 42.5,90.5C 36.3459,80.7354 34.0126,70.0688 35.5,58.5C 36.9238,56.4855 37.5905,54.1522 37.5,51.5C 43.2633,35.9079 54.2633,26.0746 70.5,22C 75.9167,21.2185 81.2501,21.3852 86.5,22.5 Z"/></g>
<g><path style="opacity:1" fill="#d6d6d6" d="M 86.5,22.5 C 109.472,27.1384 121.806,41.1384 123.5,64.5C 120.178,96.9788 102.178,111.812 69.5,109C 58.0389,106.281 49.0389,100.114 42.5,90.5C 44.1272,87.3452 46.4606,84.5119 49.5,82C 52.1667,81.3333 54.8333,81.3333 57.5,82C 61.145,86.8173 65.8117,90.1507 71.5,92C 84.154,94.4526 94.3206,90.6192 102,80.5C 110.95,59.9011 104.783,46.0677 83.5,39C 77.4181,32.0462 78.4181,26.5462 86.5,22.5 Z"/></g>
<g><path style="opacity:1" fill="#fdfdfd" d="M 174.5,23.5 C 174.168,34.5202 174.501,45.5202 175.5,56.5C 176.107,56.3764 176.44,56.0431 176.5,55.5C 185.039,44.9387 193.706,34.4387 202.5,24C 210.167,23.3333 217.833,23.3333 225.5,24C 214.591,36.4995 203.924,49.1662 193.5,62C 205.323,75.9892 217.323,89.8225 229.5,103.5C 221.684,104.492 213.684,104.826 205.5,104.5C 195.49,93.8219 185.823,82.8219 176.5,71.5C 176.44,70.9569 176.107,70.6236 175.5,70.5C 174.501,81.8138 174.168,93.1471 174.5,104.5C 168.5,104.5 162.5,104.5 156.5,104.5C 156.5,77.5 156.5,50.5 156.5,23.5C 162.5,23.5 168.5,23.5 174.5,23.5 Z"/></g>
<g><path style="opacity:1" fill="#c9c8d1" d="M 174.5,23.5 C 175.167,34.1667 175.833,44.8333 176.5,55.5C 176.44,56.0431 176.107,56.3764 175.5,56.5C 174.501,45.5202 174.168,34.5202 174.5,23.5 Z"/></g>
<g><path style="opacity:1" fill="#30e5fb" d="M 394.5,23.5 C 394.5,28.8333 394.5,34.1667 394.5,39.5C 388.167,39.5 381.833,39.5 375.5,39.5C 375.5,61.5 375.5,83.5 375.5,105.5C 369.167,105.5 362.833,105.5 356.5,105.5C 356.5,83.5 356.5,61.5 356.5,39.5C 350.167,39.5 343.833,39.5 337.5,39.5C 337.5,34.1667 337.5,28.8333 337.5,23.5C 356.5,23.5 375.5,23.5 394.5,23.5 Z"/></g>
<g><path style="opacity:1" fill="#31e2f8" d="M 396.5,38.5 C 395.167,34.8333 395.167,31.1667 396.5,27.5C 401.322,21.7817 406.822,21.115 413,25.5C 418.558,37.5561 414.724,43.3895 401.5,43C 399.34,42.0041 397.673,40.5041 396.5,38.5 Z"/></g>
<g><path style="opacity:1" fill="#2c5d7c" d="M 394.5,23.5 C 395.167,24.8333 395.833,26.1667 396.5,27.5C 395.167,31.1667 395.167,34.8333 396.5,38.5C 395.833,38.8333 395.167,39.1667 394.5,39.5C 394.5,34.1667 394.5,28.8333 394.5,23.5 Z"/></g>
<g><path style="opacity:1" fill="#fbfbfc" d="M 280.5,72.5 C 280.5,75.5 280.5,78.5 280.5,81.5C 268.322,81.1716 256.322,81.5049 244.5,82.5C 244.334,87.5016 246.667,90.6683 251.5,92C 254.5,92.6667 257.5,92.6667 260.5,92C 263.318,90.662 265.985,89.162 268.5,87.5C 272.877,88.6802 276.544,90.8469 279.5,94C 273.242,102.826 264.576,106.993 253.5,106.5C 232.808,103.96 223.975,92.2931 227,71.5C 236.739,52.698 251.239,47.8647 270.5,57C 275.975,60.7828 279.308,65.9494 280.5,72.5 Z"/></g>
<g><path style="opacity:1" fill="#7c7b8f" d="M 296.5,54.5 C 289.978,54.1765 283.645,54.5098 277.5,55.5C 276.957,55.44 276.624,55.1067 276.5,54.5C 283.322,53.1819 289.989,53.1819 296.5,54.5 Z"/></g>
<g><path style="opacity:1" fill="#78778c" d="M 322.5,54.5 C 329.344,53.1812 336.344,53.1812 343.5,54.5C 343.376,55.1067 343.043,55.44 342.5,55.5C 336.021,54.5093 329.354,54.176 322.5,54.5 Z"/></g>
<g><path style="opacity:1" fill="#2b6f8c" d="M 456.5,54.5 C 464.01,53.1801 471.677,53.1801 479.5,54.5C 479.376,55.1067 479.043,55.44 478.5,55.5C 471.352,54.5084 464.019,54.175 456.5,54.5 Z"/></g>
<g><path style="opacity:1" fill="#fbfbfc" d="M 296.5,54.5 C 301.307,62.7705 306.14,71.1038 311,79.5C 314.845,71.145 318.678,62.8117 322.5,54.5C 329.354,54.176 336.021,54.5093 342.5,55.5C 329.935,80.2972 317.101,104.964 304,129.5C 297.223,130.811 290.39,130.811 283.5,129.5C 289.167,118.833 294.833,108.167 300.5,97.5C 292.821,83.4729 285.154,69.4729 277.5,55.5C 283.645,54.5098 289.978,54.1765 296.5,54.5 Z"/></g>
<g><path style="opacity:1" fill="#31e8fd" d="M 396.5,54.5 C 402.167,54.5 407.833,54.5 413.5,54.5C 413.5,71.1667 413.5,87.8333 413.5,104.5C 407.833,104.5 402.167,104.5 396.5,104.5C 396.5,87.8333 396.5,71.1667 396.5,54.5 Z"/></g>
<g><path style="opacity:1" fill="#2c819d" d="M 396.5,54.5 C 402.31,53.5104 408.31,53.1771 414.5,53.5C 414.5,70.8333 414.5,88.1667 414.5,105.5C 408.31,105.823 402.31,105.49 396.5,104.5C 402.167,104.5 407.833,104.5 413.5,104.5C 413.5,87.8333 413.5,71.1667 413.5,54.5C 407.833,54.5 402.167,54.5 396.5,54.5 Z"/></g>
<g><path style="opacity:1" fill="#9d9d9d" d="M 37.5,51.5 C 37.5905,54.1522 36.9238,56.4855 35.5,58.5C 35.4095,55.8478 36.0762,53.5145 37.5,51.5 Z"/></g>
<g><path style="opacity:1" fill="#2a2a2a" d="M 76.5,59.5 C 81.7134,58.7617 84.7134,60.9284 85.5,66C 84.0358,71.3051 80.7025,72.8051 75.5,70.5C 72.6635,66.5256 72.9968,62.8589 76.5,59.5 Z"/></g>
<g><path style="opacity:1" fill="#2a2749" d="M 263.5,71.5 C 257.074,72.12 251.074,71.4533 245.5,69.5C 247.201,65.9749 250.035,64.3082 254,64.5C 259.345,64.0731 262.512,66.4064 263.5,71.5 Z"/></g>
<g><path style="opacity:0.997" fill="#b9b8c4" d="M 176.5,71.5 C 175.505,82.6544 175.172,93.9877 175.5,105.5C 168.978,105.823 162.645,105.49 156.5,104.5C 162.5,104.5 168.5,104.5 174.5,104.5C 174.168,93.1471 174.501,81.8138 175.5,70.5C 176.107,70.6236 176.44,70.9569 176.5,71.5 Z"/></g>
<g><path style="opacity:1" fill="#65637b" d="M 245.5,69.5 C 251.074,71.4533 257.074,72.12 263.5,71.5C 257.355,72.4902 251.022,72.8235 244.5,72.5C 244.263,71.209 244.596,70.209 245.5,69.5 Z"/></g>
<g><path style="opacity:1" fill="#9795a6" d="M 280.5,72.5 C 281.479,75.6248 281.813,78.9581 281.5,82.5C 269.167,82.5 256.833,82.5 244.5,82.5C 256.322,81.5049 268.322,81.1716 280.5,81.5C 280.5,78.5 280.5,75.5 280.5,72.5 Z"/></g>
<g><path style="opacity:1" fill="#9493a4" d="M 229.5,103.5 C 230.043,103.56 230.376,103.893 230.5,104.5C 222.009,105.821 213.676,105.821 205.5,104.5C 213.684,104.826 221.684,104.492 229.5,103.5 Z"/></g>
<g><path style="opacity:1" fill="#2c84a0" d="M 440.5,86.5 C 439.51,92.6446 439.177,98.9779 439.5,105.5C 433.31,105.823 427.31,105.49 421.5,104.5C 427.167,104.5 432.833,104.5 438.5,104.5C 438.17,98.1318 438.504,91.7985 439.5,85.5C 440.107,85.6236 440.44,85.9569 440.5,86.5 Z"/></g>
<g><path style="opacity:1" fill="#2b85a1" d="M 480.5,103.5 C 480.833,103.5 481.167,103.5 481.5,103.5C 481.5,104.167 481.5,104.833 481.5,105.5C 473.981,105.825 466.648,105.492 459.5,104.5C 466.687,104.825 473.687,104.491 480.5,103.5 Z"/></g>
</svg>
