<!DOCTYPE svg PUBLIC "-//W3C//DTD SVG 1.1//EN" "http://www.w3.org/Graphics/SVG/1.1/DTD/svg11.dtd">
<svg width="100%" height="100%" viewBox="0 0 482 133" version="1.1" xmlns="http://www.w3.org/2000/svg" xmlns:xlink="http://www.w3.org/1999/xlink" xml:space="preserve" xmlns:serif="http://www.serif.com/" style="fill-rule:evenodd;clip-rule:evenodd;stroke-linejoin:round;stroke-miterlimit:2;">
<g><path style="opacity:0.298" fill="#cefeca" d="M 56.5,0.5 C 48.6002,2.60559 40.9335,5.60559 33.5,9.5C 40.136,4.02072 47.8027,1.02072 56.5,0.5 Z"/></g>
<g><path style="opacity:0.796" fill="#d5fed2" d="M 82.5,0.5 C 91.2076,1.02695 98.8742,4.02695 105.5,9.5C 97.4625,7.11411 89.7959,4.11411 82.5,0.5 Z"/></g>
<g><path style="opacity:0.733" fill="#d1fecc" d="M 106.5,9.5 C 110.12,11.4528 113.12,14.1195 115.5,17.5C 112.732,15.9128 110.065,14.0795 107.5,12C 106.748,11.3292 106.414,10.4959 106.5,9.5 Z"/></g>
<g><path style="opacity:1" fill="#e4fee3" d="M 33.5,9.5 C 31.502,11.5998 29.3353,13.5998 27,15.5C 26.588,19.4033 24.4214,21.07 20.5,20.5C 23.9481,15.7131 28.2814,12.0464 33.5,9.5 Z"/></g>
<g><path style="opacity:1" fill="#fcfefb" d="M 439.5,70.5 C 441.167,69.1667 442.833,67.8333 444.5,66.5C 447.669,64.1801 451.002,62.0134 454.5,60C 453.911,58.1267 454.578,56.46 456.5,55C 463.192,54.1691 469.858,54.3358 476.5,55.5C 475.048,56.9397 474.048,58.6064 473.5,60.5C 472.5,62.1667 471.167,63.5 469.5,64.5C 466.833,65.1667 465.167,66.8333 464.5,69.5C 461.856,72.4802 459.189,75.4802 456.5,78.5C 463.521,85.8539 470.521,93.1872 477.5,100.5C 477.511,102.017 478.177,103.184 479.5,104C 471.605,105.057 463.938,104.557 456.5,102.5C 451.5,98.1667 446.833,93.5 442.5,88.5C 442.5,87.5 442.5,86.5 442.5,85.5C 441.167,85.5 439.833,85.5 438.5,85.5C 438.5,91.8333 438.5,98.1667 438.5,104.5C 433.167,104.5 427.833,104.5 422.5,104.5C 422.5,76.5 422.5,48.5 422.5,20.5C 427.833,20.5 433.167,20.5 438.5,20.5C 438.17,37.3417 438.503,54.0084 439.5,70.5 Z"/></g>
<g><path style="opacity:0.945" fill="#d3ffce" d="M 116.5,18.5 C 120.628,21.2901 123.628,24.9568 125.5,29.5C 122.129,26.1294 119.129,22.4627 116.5,18.5 Z"/></g>
<g><path style="opacity:0.984" fill="#fcfefb" d="M 413.5,26.5 C 414.36,30.4338 414.693,34.4338 414.5,38.5C 414.167,39.5 413.5,40.1667 412.5,40.5C 409.806,41.737 406.473,42.4037 402.5,42.5C 402.67,41.1779 402.337,40.0113 401.5,39C 399.782,38.654 398.115,38.154 396.5,37.5C 395.893,37.6236 395.56,37.9569 395.5,38.5C 389.021,39.4907 382.354,39.824 375.5,39.5C 374.503,60.9936 374.169,82.6602 374.5,104.5C 368.833,104.5 363.167,104.5 357.5,104.5C 357.831,82.6602 357.497,60.9936 356.5,39.5C 350.107,39.2071 343.773,39.5404 337.5,40.5C 336.504,34.5368 336.171,28.5368 336.5,22.5C 356.167,22.5 375.833,22.5 395.5,22.5C 395.338,24.5273 395.505,26.5273 396,28.5C 398.919,22.9752 403.419,21.1419 409.5,23C 411.324,23.66 412.657,24.8267 413.5,26.5 Z"/></g>
<g><path style="opacity:1" fill="#fbfefb" d="M 205.5,22.5 C 211.346,23.1666 217.346,23.8332 223.5,24.5C 221.344,26.6289 219.677,28.9622 218.5,31.5C 210.78,42.0644 202.447,52.2311 193.5,62C 201.529,70.5844 209.195,79.4177 216.5,88.5C 217.687,90.9053 219.187,93.2387 221,95.5C 222.129,97.1412 223.629,98.1412 225.5,98.5C 225.658,100.821 226.658,102.654 228.5,104C 220.507,104.5 212.507,104.666 204.5,104.5C 196.155,95.4863 188.155,86.1529 180.5,76.5C 179.37,74.6854 178.704,72.6854 178.5,70.5C 177.167,70.5 175.833,70.5 174.5,70.5C 174.5,81.8333 174.5,93.1667 174.5,104.5C 169.167,104.5 163.833,104.5 158.5,104.5C 158.5,77.8333 158.5,51.1667 158.5,24.5C 163.833,24.5 169.167,24.5 174.5,24.5C 174.5,35.1667 174.5,45.8333 174.5,56.5C 175.675,56.719 176.675,56.3857 177.5,55.5C 179.636,54.0312 180.97,52.0312 181.5,49.5C 183.129,48.3747 184.629,47.0414 186,45.5C 186.692,44.5632 186.525,43.8966 185.5,43.5C 191.166,36.9982 196.666,30.3315 202,23.5C 203.011,22.6634 204.178,22.33 205.5,22.5 Z"/></g>
<g><path style="opacity:1" fill="#f7f8f7" d="M 56.5,-0.5 C 65.1667,-0.5 73.8333,-0.5 82.5,-0.5C 82.5,-0.166667 82.5,0.166667 82.5,0.5C 89.7959,4.11411 97.4625,7.11411 105.5,9.5C 105.833,9.5 106.167,9.5 106.5,9.5C 106.414,10.4959 106.748,11.3292 107.5,12C 110.065,14.0795 112.732,15.9128 115.5,17.5C 116.167,17.5 116.5,17.8333 116.5,18.5C 119.129,22.4627 122.129,26.1294 125.5,29.5C 125.559,33.5129 127.226,36.5129 130.5,38.5C 130.39,42.8652 131.557,46.8652 134,50.5C 134.5,60.828 134.666,71.1613 134.5,81.5C 132.092,82.7353 130.092,84.5686 128.5,87C 130.62,88.5227 130.953,90.3561 129.5,92.5C 127.798,94.4137 125.798,95.9137 123.5,97C 124.059,97.7247 124.392,98.5581 124.5,99.5C 123.106,101.646 122.44,103.979 122.5,106.5C 119.083,109.413 115.749,112.58 112.5,116C 109.099,115.734 107.433,117.234 107.5,120.5C 103.535,121.796 99.5351,123.129 95.5,124.5C 95.7093,125.086 96.0426,125.586 96.5,126C 92.7599,128.045 88.9265,128.545 85,127.5C 83.513,128.253 83.3463,129.086 84.5,130C 82.2922,130.191 80.2922,130.691 78.5,131.5C 78.5,131.833 78.5,132.167 78.5,132.5C 72.5,132.5 66.5,132.5 60.5,132.5C 60.5,132.167 60.5,131.833 60.5,131.5C 51.5448,129.598 42.8781,126.598 34.5,122.5C 31.6298,121.567 29.2964,119.9 27.5,117.5C 25.1002,114.097 22.1002,111.43 18.5,109.5C 16.7819,107.777 15.4486,105.777 14.5,103.5C 13.1911,99.2584 11.1911,95.5917 8.5,92.5C 3.87162,78.8409 2.53829,64.8409 4.5,50.5C 6.16276,48.5615 6.82943,46.2282 6.5,43.5C 10.4188,35.4582 15.0855,27.7915 20.5,20.5C 24.4214,21.07 26.588,19.4033 27,15.5C 29.3353,13.5998 31.502,11.5998 33.5,9.5C 40.9335,5.60559 48.6002,2.60559 56.5,0.5C 56.5,0.166667 56.5,-0.166667 56.5,-0.5 Z"/></g>
<g><path style="opacity:1" fill="#080809" d="M 123.5,47.5 C 123.41,50.1522 124.076,52.4855 125.5,54.5C 129.114,87.7691 115.114,109.936 83.5,121C 49.7436,126.544 26.9102,113.378 15,81.5C 8.43901,47.7858 20.939,24.2858 52.5,11C 81.3853,4.73447 103.885,13.9011 120,38.5C 121.664,41.3271 122.83,44.3271 123.5,47.5 Z"/></g>
<g><path style="opacity:1" fill="#d7d7d7" d="M 76.5,22.5 C 95.4036,25.8974 107.57,36.8974 113,55.5C 116.339,81.0035 106.172,98.5035 82.5,108C 61.9234,113.353 45.59,107.52 33.5,90.5C 35.8251,89.3454 36.9918,87.3454 37,84.5C 40.3088,81.3533 44.1421,80.6867 48.5,82.5C 58.3575,93.3391 70.0241,95.5057 83.5,89C 97.9811,77.4436 100.314,63.7769 90.5,48C 85.5495,43.6909 79.8829,40.6909 73.5,39C 67.3624,31.9766 68.3624,26.4766 76.5,22.5 Z"/></g>
<g><path style="opacity:1" fill="#fcfcfc" d="M 76.5,22.5 C 68.3624,26.4766 67.3624,31.9766 73.5,39C 79.8829,40.6909 85.5495,43.6909 90.5,48C 100.314,63.7769 97.9811,77.4436 83.5,89C 70.0241,95.5057 58.3575,93.3391 48.5,82.5C 44.1421,80.6867 40.3088,81.3533 37,84.5C 36.9918,87.3454 35.8251,89.3454 33.5,90.5C 29.5725,85.5824 27.0725,79.9157 26,73.5C 23.3228,53.3589 30.4895,37.8589 47.5,27C 50.6051,25.1319 53.9385,23.9652 57.5,23.5C 63.7974,22.6803 70.1308,22.347 76.5,22.5 Z"/></g>
<g><path style="opacity:1" fill="#b8b8b8" d="M 76.5,22.5 C 70.1308,22.347 63.7974,22.6803 57.5,23.5C 60.8646,21.9608 64.5313,21.2942 68.5,21.5C 71.3555,21.5025 74.0221,21.8359 76.5,22.5 Z"/></g>
<g><path style="opacity:0.871" fill="#d9fed6" d="M 20.5,20.5 C 15.0855,27.7915 10.4188,35.4582 6.5,43.5C 8.89277,34.3689 13.5594,26.7022 20.5,20.5 Z"/></g>
<g><path style="opacity:0.145" fill="#c8ffc7" d="M 205.5,22.5 C 212.532,22.1697 219.532,22.503 226.5,23.5C 224.146,26.5211 221.479,29.1877 218.5,31.5C 219.677,28.9622 221.344,26.6289 223.5,24.5C 217.346,23.8332 211.346,23.1666 205.5,22.5 Z"/></g>
<g><path style="opacity:1" fill="#eaffea" d="M 159.5,22.5 C 164.5,23.1667 169.5,23.8333 174.5,24.5C 169.167,24.5 163.833,24.5 158.5,24.5C 158.5,51.1667 158.5,77.8333 158.5,104.5C 157.833,78.5 157.167,52.5 156.5,26.5C 156.5,25.1667 156.5,23.8333 156.5,22.5C 157.5,22.5 158.5,22.5 159.5,22.5 Z"/></g>
<g><path style="opacity:1" fill="#d2ffd4" d="M 413.5,26.5 C 416.982,30.2402 417.315,34.2402 414.5,38.5C 414.693,34.4338 414.36,30.4338 413.5,26.5 Z"/></g>
<g><path style="opacity:1" fill="#dfffdd" d="M 125.5,29.5 C 127.924,32.0078 129.59,35.0078 130.5,38.5C 127.226,36.5129 125.559,33.5129 125.5,29.5 Z"/></g>
<g><path style="opacity:0.869" fill="#dcfedc" d="M 395.5,38.5 C 395.56,37.9569 395.893,37.6236 396.5,37.5C 398.115,38.154 399.782,38.654 401.5,39C 402.337,40.0113 402.67,41.1779 402.5,42.5C 406.473,42.4037 409.806,41.737 412.5,40.5C 410.834,42.8284 408.501,43.8284 405.5,43.5C 401.342,43.4213 398.009,41.7546 395.5,38.5 Z"/></g>
<g><path style="opacity:0.996" fill="#d5fed1" d="M 130.5,38.5 C 135.752,49.8121 137.585,61.8121 136,74.5C 135.814,77.0356 135.314,79.369 134.5,81.5C 134.666,71.1613 134.5,60.828 134,50.5C 131.557,46.8652 130.39,42.8652 130.5,38.5 Z"/></g>
<g><path style="opacity:0.799" fill="#d2fed2" d="M 159.5,22.5 C 164.833,22.5 170.167,22.5 175.5,22.5C 175.333,33.505 175.5,44.505 176,55.5C 177.331,53.0038 179.164,51.0038 181.5,49.5C 180.97,52.0312 179.636,54.0312 177.5,55.5C 176.675,56.3857 175.675,56.719 174.5,56.5C 174.5,45.8333 174.5,35.1667 174.5,24.5C 169.5,23.8333 164.5,23.1667 159.5,22.5 Z"/></g>
<g><path style="opacity:0.371" fill="#c7ffcb" d="M 6.5,43.5 C 6.82943,46.2282 6.16276,48.5615 4.5,50.5C 4.40953,47.8478 5.07619,45.5145 6.5,43.5 Z"/></g>
<g><path style="opacity:0.894" fill="#d4ffcf" d="M 185.5,43.5 C 186.525,43.8966 186.692,44.5632 186,45.5C 184.629,47.0414 183.129,48.3747 181.5,49.5C 182.415,47.2459 183.748,45.2459 185.5,43.5 Z"/></g>
<g><path style="opacity:1" fill="#464646" d="M 123.5,47.5 C 124.924,49.5145 125.59,51.8478 125.5,54.5C 124.076,52.4855 123.41,50.1522 123.5,47.5 Z"/></g>
<g><path style="opacity:0.996" fill="#f8fef7" d="M 280.5,72.5 C 280.5,75.5 280.5,78.5 280.5,81.5C 268.167,81.5 255.833,81.5 243.5,81.5C 243.232,83.099 243.566,84.4324 244.5,85.5C 249.406,92.242 255.739,93.9086 263.5,90.5C 265.094,90.0805 266.594,89.4138 268,88.5C 271.168,90.7252 274.668,92.0586 278.5,92.5C 279.376,92.3691 280.043,92.7025 280.5,93.5C 276.419,100.378 270.419,104.545 262.5,106C 241.312,109.29 228.978,100.457 225.5,79.5C 228.807,59.0417 240.807,50.2084 261.5,53C 272.1,55.4327 278.434,61.9327 280.5,72.5 Z M 260.5,65.5 C 261.74,66.973 262.74,68.6396 263.5,70.5C 257.537,71.4959 251.537,71.8293 245.5,71.5C 245.799,68.3579 247.466,66.1912 250.5,65C 253.888,64.3412 257.221,64.5078 260.5,65.5 Z"/></g>
<g><path style="opacity:0.376" fill="#e3fee5" d="M 302.5,64.5 C 301.542,64.0472 300.708,63.3805 300,62.5C 299.667,62.8333 299.333,63.1667 299,63.5C 298.51,62.2068 298.343,60.8734 298.5,59.5C 297.448,59.6495 296.448,59.4828 295.5,59C 296.38,57.6439 296.714,56.1439 296.5,54.5C 291.489,54.3341 286.489,54.5007 281.5,55C 280.577,57.0408 280.244,59.2075 280.5,61.5C 278.941,59.3924 277.608,57.0591 276.5,54.5C 283.5,53.1667 290.5,53.1667 297.5,54.5C 299.193,57.8864 300.86,61.2198 302.5,64.5 Z"/></g>
<g><path style="opacity:0.381" fill="#deffdf" d="M 473.5,60.5 C 474.048,58.6064 475.048,56.9397 476.5,55.5C 469.858,54.3358 463.192,54.1691 456.5,55C 454.578,56.46 453.911,58.1267 454.5,60C 451.002,62.0134 447.669,64.1801 444.5,66.5C 448.33,62.5014 451.997,58.3347 455.5,54C 463.521,53.1684 471.521,53.3351 479.5,54.5C 477.812,56.8545 475.812,58.8545 473.5,60.5 Z"/></g>
<g><path style="opacity:1" fill="#fafdf9" d="M 338.5,63.5 C 333.473,67.2192 330.807,72.2192 330.5,78.5C 327.927,85.3152 324.594,91.6485 320.5,97.5C 319.265,97.7214 318.265,98.3881 317.5,99.5C 316.272,102.485 315.106,105.485 314,108.5C 313.107,107.289 312.274,107.289 311.5,108.5C 312.623,110.482 312.623,112.482 311.5,114.5C 311.008,116.819 310.008,118.819 308.5,120.5C 305.264,122.971 303.598,126.304 303.5,130.5C 297.132,130.83 290.798,130.496 284.5,129.5C 287.685,127.317 289.018,124.317 288.5,120.5C 289.376,120.631 290.043,120.298 290.5,119.5C 292.051,116.641 293.051,113.641 293.5,110.5C 295.17,105.661 297.503,101.161 300.5,97C 298.097,93.6894 296.097,90.1894 294.5,86.5C 294.117,81.824 292.117,78.1574 288.5,75.5C 287.326,74.4863 286.66,73.153 286.5,71.5C 285.776,67.2368 283.776,63.9035 280.5,61.5C 280.244,59.2075 280.577,57.0408 281.5,55C 286.489,54.5007 291.489,54.3341 296.5,54.5C 296.714,56.1439 296.38,57.6439 295.5,59C 296.448,59.4828 297.448,59.6495 298.5,59.5C 298.343,60.8734 298.51,62.2068 299,63.5C 299.333,63.1667 299.667,62.8333 300,62.5C 300.708,63.3805 301.542,64.0472 302.5,64.5C 305.056,69.2694 307.89,73.9361 311,78.5C 314.737,70.457 318.57,62.457 322.5,54.5C 329.389,53.8166 336.222,53.1499 343,52.5C 342.619,56.5995 341.119,60.2662 338.5,63.5 Z"/></g>
<g><path style="opacity:1" fill="#292929" d="M 67.5,59.5 C 75.9568,60.437 77.6235,64.2703 72.5,71C 65.6667,72.1667 62.8333,69.3333 64,62.5C 65.1451,61.3636 66.3117,60.3636 67.5,59.5 Z"/></g>
<g><path style="opacity:1" fill="#ddfedd" d="M 260.5,65.5 C 257.221,64.5078 253.888,64.3412 250.5,65C 247.466,66.1912 245.799,68.3579 245.5,71.5C 244.657,69.1796 244.657,67.0129 245.5,65C 248.356,64.1202 251.189,63.2869 254,62.5C 256.802,62.3199 258.969,63.3199 260.5,65.5 Z"/></g>
<g><path style="opacity:0.797" fill="#cdffcd" d="M 356.5,39.5 C 357.497,60.9936 357.831,82.6602 357.5,104.5C 363.167,104.5 368.833,104.5 374.5,104.5C 374.169,82.6602 374.503,60.9936 375.5,39.5C 375.5,61.5 375.5,83.5 375.5,105.5C 369.167,105.5 362.833,105.5 356.5,105.5C 356.5,83.5 356.5,61.5 356.5,39.5 Z"/></g>
<g><path style="opacity:1" fill="#dbffdd" d="M 396.5,103.5 C 396.818,87.119 396.485,70.7857 395.5,54.5C 401.798,53.5037 408.132,53.1703 414.5,53.5C 414.5,70.8333 414.5,88.1667 414.5,105.5C 408.132,105.83 401.798,105.496 395.5,104.5C 395.624,103.893 395.957,103.56 396.5,103.5 Z"/></g>
<g><path style="opacity:1" fill="#fefefd" d="M 396.5,103.5 C 397.831,95.8624 398.498,87.8624 398.5,79.5C 398.493,71.2576 398.159,63.091 397.5,55C 402.489,54.5007 407.489,54.3341 412.5,54.5C 412.5,71.1667 412.5,87.8333 412.5,104.5C 406.974,104.821 401.64,104.488 396.5,103.5 Z"/></g>
<g><path style="opacity:1" fill="#d6ffd6" d="M 439.5,70.5 C 438.503,54.0084 438.17,37.3417 438.5,20.5C 433.167,20.5 427.833,20.5 422.5,20.5C 422.5,48.5 422.5,76.5 422.5,104.5C 427.833,104.5 433.167,104.5 438.5,104.5C 438.5,98.1667 438.5,91.8333 438.5,85.5C 439.833,85.5 441.167,85.5 442.5,85.5C 442.5,86.5 442.5,87.5 442.5,88.5C 441.542,88.0472 440.708,87.3805 440,86.5C 439.5,92.8246 439.334,99.1579 439.5,105.5C 433.132,105.83 426.798,105.496 420.5,104.5C 421.833,76.5 421.833,48.5 420.5,20.5C 426.798,19.5037 433.132,19.1703 439.5,19.5C 439.5,36.5 439.5,53.5 439.5,70.5 Z"/></g>
<g><path style="opacity:1" fill="#d7ffda" d="M 280.5,61.5 C 283.776,63.9035 285.776,67.2368 286.5,71.5C 284.012,68.5342 282.012,65.2009 280.5,61.5 Z"/></g>
<g><path style="opacity:0.275" fill="#cbffcc" d="M 469.5,64.5 C 468.167,66.5 466.5,68.1667 464.5,69.5C 465.167,66.8333 466.833,65.1667 469.5,64.5 Z"/></g>
<g><path style="opacity:1" fill="#dcffdc" d="M 338.5,63.5 C 336.084,68.6665 333.418,73.6665 330.5,78.5C 330.807,72.2192 333.473,67.2192 338.5,63.5 Z"/></g>
<g><path style="opacity:0.376" fill="#c7ffc6" d="M 4.5,50.5 C 2.53829,64.8409 3.87162,78.8409 8.5,92.5C 5.59668,87.2875 3.76334,81.6208 3,75.5C 2.33333,68.8333 2.33333,62.1667 3,55.5C 3.19808,53.6183 3.69808,51.9516 4.5,50.5 Z"/></g>
<g><path style="opacity:0.514" fill="#bfffbf" d="M 280.5,72.5 C 281.479,75.6248 281.813,78.9581 281.5,82.5C 269.167,82.5 256.833,82.5 244.5,82.5C 244.5,83.5 244.5,84.5 244.5,85.5C 243.566,84.4324 243.232,83.099 243.5,81.5C 255.833,81.5 268.167,81.5 280.5,81.5C 280.5,78.5 280.5,75.5 280.5,72.5 Z"/></g>
<g><path style="opacity:1" fill="#d9ffd5" d="M 288.5,75.5 C 292.117,78.1574 294.117,81.824 294.5,86.5C 292.25,83.0012 290.25,79.3346 288.5,75.5 Z"/></g>
<g><path style="opacity:1" fill="#d9ffda" d="M 278.5,92.5 C 274.668,92.0586 271.168,90.7252 268,88.5C 266.594,89.4138 265.094,90.0805 263.5,90.5C 264.479,88.8546 265.812,87.5213 267.5,86.5C 271.389,88.2742 275.055,90.2742 278.5,92.5 Z"/></g>
<g><path style="opacity:0.914" fill="#daffdc" d="M 216.5,88.5 C 219.959,91.4148 222.959,94.7482 225.5,98.5C 223.629,98.1412 222.129,97.1412 221,95.5C 219.187,93.2387 217.687,90.9053 216.5,88.5 Z"/></g>
<g><path style="opacity:0.795" fill="#c8ffc8" d="M 156.5,26.5 C 157.167,52.5 157.833,78.5 158.5,104.5C 163.833,104.5 169.167,104.5 174.5,104.5C 174.5,93.1667 174.5,81.8333 174.5,70.5C 175.833,70.5 177.167,70.5 178.5,70.5C 178.704,72.6854 179.37,74.6854 180.5,76.5C 178.549,75.2842 177.049,73.6175 176,71.5C 175.5,82.8284 175.333,94.1618 175.5,105.5C 169.167,105.5 162.833,105.5 156.5,105.5C 156.5,79.1667 156.5,52.8333 156.5,26.5 Z"/></g>
<g><path style="opacity:0.949" fill="#d4ffd7" d="M 8.5,92.5 C 11.1911,95.5917 13.1911,99.2584 14.5,103.5C 11.6718,100.325 9.67176,96.6582 8.5,92.5 Z"/></g>
<g><path style="opacity:1" fill="#e9feeb" d="M 134.5,81.5 C 132.879,91.0716 128.879,99.4049 122.5,106.5C 122.44,103.979 123.106,101.646 124.5,99.5C 124.392,98.5581 124.059,97.7247 123.5,97C 125.798,95.9137 127.798,94.4137 129.5,92.5C 130.953,90.3561 130.62,88.5227 128.5,87C 130.092,84.5686 132.092,82.7353 134.5,81.5 Z"/></g>
<g><path style="opacity:0.518" fill="#cbffce" d="M 225.5,98.5 C 227.6,100.498 229.6,102.665 231.5,105C 222.324,105.824 213.324,105.657 204.5,104.5C 212.507,104.666 220.507,104.5 228.5,104C 226.658,102.654 225.658,100.821 225.5,98.5 Z"/></g>
<g><path style="opacity:1" fill="#dfffe1" d="M 320.5,97.5 C 318.26,103.65 315.26,109.316 311.5,114.5C 312.623,112.482 312.623,110.482 311.5,108.5C 312.274,107.289 313.107,107.289 314,108.5C 315.106,105.485 316.272,102.485 317.5,99.5C 318.265,98.3881 319.265,97.7214 320.5,97.5 Z"/></g>
<g><path style="opacity:0.508" fill="#ceffd2" d="M 477.5,100.5 C 478.833,101.5 480.167,102.5 481.5,103.5C 481.5,104.167 481.5,104.833 481.5,105.5C 473.826,105.666 466.159,105.5 458.5,105C 457.619,104.292 456.953,103.458 456.5,102.5C 463.938,104.557 471.605,105.057 479.5,104C 478.177,103.184 477.511,102.017 477.5,100.5 Z"/></g>
<g><path style="opacity:0.51" fill="#c8fece" d="M 18.5,109.5 C 22.1002,111.43 25.1002,114.097 27.5,117.5C 23.8998,115.57 20.8998,112.903 18.5,109.5 Z"/></g>
<g><path style="opacity:1" fill="#d5ffd6" d="M 293.5,110.5 C 293.051,113.641 292.051,116.641 290.5,119.5C 290.043,120.298 289.376,120.631 288.5,120.5C 289.659,116.849 291.326,113.515 293.5,110.5 Z"/></g>
<g><path style="opacity:1" fill="#d8ffd5" d="M 308.5,120.5 C 307.341,124.151 305.674,127.485 303.5,130.5C 303.598,126.304 305.264,122.971 308.5,120.5 Z"/></g>
<g><path style="opacity:0.778" fill="#d3fed4" d="M 34.5,122.5 C 42.8781,126.598 51.5448,129.598 60.5,131.5C 50.7695,131.243 42.1028,128.243 34.5,122.5 Z"/></g>
<g><path style="opacity:1" fill="#ddffdc" d="M 122.5,106.5 C 111.782,121.532 97.1151,129.866 78.5,131.5C 80.2922,130.691 82.2922,130.191 84.5,130C 83.3463,129.086 83.513,128.253 85,127.5C 88.9265,128.545 92.7599,128.045 96.5,126C 96.0426,125.586 95.7093,125.086 95.5,124.5C 99.5351,123.129 103.535,121.796 107.5,120.5C 107.433,117.234 109.099,115.734 112.5,116C 115.749,112.58 119.083,109.413 122.5,106.5 Z"/></g>
<g><path style="opacity:0.274" fill="#d4ffd2" d="M 288.5,120.5 C 289.018,124.317 287.685,127.317 284.5,129.5C 290.798,130.496 297.132,130.83 303.5,130.5C 296.656,131.819 289.656,131.819 282.5,130.5C 284.526,127.103 286.526,123.77 288.5,120.5 Z"/></g>
</svg>
