<!DOCTYPE svg PUBLIC "-//W3C//DTD SVG 1.1//EN" "http://www.w3.org/Graphics/SVG/1.1/DTD/svg11.dtd">
<svg width="100%" height="100%" viewBox="0 0 482 133" version="1.1" xmlns="http://www.w3.org/2000/svg" xmlns:xlink="http://www.w3.org/1999/xlink" xml:space="preserve" xmlns:serif="http://www.serif.com/" style="fill-rule:evenodd;clip-rule:evenodd;stroke-linejoin:round;stroke-miterlimit:2;">
<g><path style="opacity:0.947" fill="#faf9f9" d="M 66.5,-0.5 C 75.1667,-0.5 83.8333,-0.5 92.5,-0.5C 125.844,8.82994 143.51,30.8299 145.5,65.5C 143.667,101.336 125.334,123.67 90.5,132.5C 83.1667,132.5 75.8333,132.5 68.5,132.5C 40.2471,126.418 22.0804,109.418 14,81.5C 8.33521,46.33 21.1685,20.4967 52.5,4C 57.254,2.35832 61.9207,0.858315 66.5,-0.5 Z"/></g>
<g><path style="opacity:1" fill="#080808" d="M 90.5,121.5 C 82.8333,122.833 75.1667,122.833 67.5,121.5C 44.6925,116.194 30.1925,102.194 24,79.5C 18.8365,42.3187 34.3365,18.8187 70.5,9C 105.104,7.37331 126.938,23.2066 136,56.5C 138.061,90.4178 122.894,112.084 90.5,121.5 Z"/></g>
<g><path style="opacity:0.994" fill="#31e7fd" d="M 481.5,103.5 C 481.5,104.167 481.5,104.833 481.5,105.5C 473.826,105.666 466.159,105.5 458.5,105C 452.333,98.8333 446.167,92.6667 440,86.5C 439.5,92.8246 439.334,99.1579 439.5,105.5C 433.5,105.5 427.5,105.5 421.5,105.5C 421.5,76.8333 421.5,48.1667 421.5,19.5C 427.5,19.5 433.5,19.5 439.5,19.5C 439.333,36.5033 439.5,53.5033 440,70.5C 445.5,65 451,59.5 456.5,54C 464.188,53.1685 471.855,53.3352 479.5,54.5C 471.833,62.5 464.167,70.5 456.5,78.5C 464.521,87.1877 472.854,95.521 481.5,103.5 Z"/></g>
<g><path style="opacity:1" fill="#fcfcfc" d="M 86.5,22.5 C 78.4181,26.5462 77.4181,32.0462 83.5,39C 104.783,46.0677 110.95,59.9011 102,80.5C 94.3206,90.6192 84.154,94.4526 71.5,92C 65.8117,90.1507 61.145,86.8173 57.5,82C 54.8333,81.3333 52.1667,81.3333 49.5,82C 46.4606,84.5119 44.1272,87.3452 42.5,90.5C 36.3459,80.7354 34.0126,70.0688 35.5,58.5C 36.9238,56.4855 37.5905,54.1522 37.5,51.5C 43.2633,35.9079 54.2633,26.0746 70.5,22C 75.9167,21.2185 81.2501,21.3852 86.5,22.5 Z"/></g>
<g><path style="opacity:1" fill="#d6d6d6" d="M 86.5,22.5 C 109.472,27.1384 121.806,41.1384 123.5,64.5C 120.178,96.9788 102.178,111.812 69.5,109C 58.0389,106.281 49.0389,100.114 42.5,90.5C 44.1272,87.3452 46.4606,84.5119 49.5,82C 52.1667,81.3333 54.8333,81.3333 57.5,82C 61.145,86.8173 65.8117,90.1507 71.5,92C 84.154,94.4526 94.3206,90.6192 102,80.5C 110.95,59.9011 104.783,46.0677 83.5,39C 77.4181,32.0462 78.4181,26.5462 86.5,22.5 Z"/></g>
<g><path style="opacity:0.998" fill="#31e7fd" d="M 156.5,22.5 C 162.758,22.1903 168.924,22.5236 175,23.5C 175.168,33.8494 175.668,44.1827 176.5,54.5C 185.022,44.4787 193.356,34.312 201.5,24C 209.416,22.2323 217.416,22.0656 225.5,23.5C 215.022,36.4793 204.355,49.3126 193.5,62C 206.393,75.723 218.726,89.8897 230.5,104.5C 221.853,105.665 213.186,105.832 204.5,105C 195.275,94.0331 185.942,83.1998 176.5,72.5C 175.501,83.4798 175.168,94.4798 175.5,105.5C 169.167,105.5 162.833,105.5 156.5,105.5C 156.5,77.8333 156.5,50.1667 156.5,22.5 Z"/></g>
<g><path style="opacity:0.997" fill="#32e7fc" d="M 337.5,22.5 C 356.503,22.3334 375.503,22.5001 394.5,23C 395.227,24.3988 395.727,25.8988 396,27.5C 402.333,20.8333 408.667,20.8333 415,27.5C 417.311,33.7524 415.811,38.9191 410.5,43C 404.533,44.772 399.699,43.272 396,38.5C 389.341,40.331 382.675,40.9976 376,40.5C 375.5,62.1641 375.333,83.8308 375.5,105.5C 369.167,105.5 362.833,105.5 356.5,105.5C 356.5,83.8333 356.5,62.1667 356.5,40.5C 349.798,40.6643 343.131,40.331 336.5,39.5C 336.214,33.7414 336.548,28.0748 337.5,22.5 Z"/></g>
<g><path style="opacity:0.993" fill="#30e8fd" d="M 247.5,52.5 C 269.887,50.2299 281.221,60.2299 281.5,82.5C 269.006,82.0214 256.673,82.5214 244.5,84C 248.05,91.3109 253.717,93.6442 261.5,91C 263.754,89.6233 265.92,88.1233 268,86.5C 272.274,88.6001 276.441,90.9335 280.5,93.5C 276.419,100.378 270.419,104.545 262.5,106C 241.315,109.294 228.982,100.461 225.5,79.5C 227.009,65.6657 234.342,56.6657 247.5,52.5 Z M 250.5,64.5 C 256.52,63.5096 260.853,65.6763 263.5,71C 257.472,71.8303 251.472,71.6636 245.5,70.5C 246.497,67.845 248.164,65.845 250.5,64.5 Z"/></g>
<g><path style="opacity:0.992" fill="#30e8fd" d="M 277.5,53.5 C 283.842,53.3338 290.175,53.5005 296.5,54C 301.473,62.1166 306.306,70.2832 311,78.5C 314.602,70.0153 318.768,61.8486 323.5,54C 329.825,53.5005 336.158,53.3338 342.5,53.5C 342.657,54.8734 342.49,56.2068 342,57.5C 329.093,81.6446 316.427,105.978 304,130.5C 300.584,131.148 297.084,131.482 293.5,131.5C 289.651,131.632 285.984,131.132 282.5,130C 288.552,119.398 294.218,108.565 299.5,97.5C 292.232,83.1308 284.565,68.9642 276.5,55C 277.056,54.6174 277.389,54.1174 277.5,53.5 Z"/></g>
<g><path style="opacity:0.998" fill="#32e7fc" d="M 396.5,53.5 C 402.425,53.1918 408.259,53.5251 414,54.5C 414.5,71.4967 414.667,88.4967 414.5,105.5C 408.5,105.5 402.5,105.5 396.5,105.5C 396.5,88.1667 396.5,70.8333 396.5,53.5 Z"/></g>
<g><path style="opacity:1" fill="#9d9d9d" d="M 37.5,51.5 C 37.5905,54.1522 36.9238,56.4855 35.5,58.5C 35.4095,55.8478 36.0762,53.5145 37.5,51.5 Z"/></g>
<g><path style="opacity:1" fill="#2a2a2a" d="M 76.5,59.5 C 81.7134,58.7617 84.7134,60.9284 85.5,66C 84.0358,71.3051 80.7025,72.8051 75.5,70.5C 72.6635,66.5256 72.9968,62.8589 76.5,59.5 Z"/></g>
<g><path style="opacity:1" fill="#bfbfbf" d="M 67.5,121.5 C 75.1667,122.833 82.8333,122.833 90.5,121.5C 86.966,123.048 83.1327,123.714 79,123.5C 74.8673,123.714 71.034,123.048 67.5,121.5 Z"/></g>
</svg>
