<svg version="1.1" id="Layer_1" xmlns="http://www.w3.org/2000/svg" xmlns:xlink="http://www.w3.org/1999/xlink" x="0px" y="0px"
	 width="100%" viewBox="0 0 482 133" enable-background="new 0 0 482 133" xml:space="preserve">
<path fill="#191A35" opacity="1.000000" stroke="none" 
	d="
M429.000000,134.000000 
	C303.645782,134.000000 178.291550,134.000000 52.423958,133.659653 
	C50.951176,132.894196 49.991756,132.469070 48.812191,131.771652 
	C41.136505,127.474487 33.686150,123.439865 26.202538,119.467911 
	C25.956366,119.337265 25.372118,119.843597 24.651470,119.889465 
	C19.567347,114.175064 14.777219,108.624199 10.129122,102.738800 
	C9.538990,99.329659 8.923588,96.221390 8.049305,93.187737 
	C6.442979,87.613976 4.683513,82.084358 2.989300,76.535912 
	C2.324237,74.357872 1.662986,72.178673 1.000000,70.000000 
	C1.000000,65.310745 1.000000,60.621487 1.272572,55.410103 
	C1.832521,54.576771 2.119900,54.265575 2.407278,53.954376 
	C1.938186,53.636250 1.469093,53.318123 1.000000,53.000000 
	C1.000000,53.000000 1.000000,52.500000 1.312187,52.086987 
	C3.417672,47.793530 5.210970,43.913082 7.054706,39.670906 
	C8.075280,37.026726 8.802895,34.600368 10.057236,32.486572 
	C15.698432,22.980114 22.620796,14.714938 33.184048,10.160807 
	C38.076847,8.571636 42.816864,6.940419 47.349552,4.857935 
	C48.842136,4.172186 49.798466,2.319236 51.000000,1.000001 
	C178.020889,1.000000 305.041779,1.000000 432.546936,1.398542 
	C433.805511,2.845265 434.365112,4.406562 435.397339,4.838579 
	C437.807587,5.847311 440.444885,6.313476 442.997803,7.388508 
	C443.579803,8.823624 443.952118,10.556713 444.764038,10.795548 
	C448.104889,11.778331 451.579346,12.307060 455.078217,13.329315 
	C460.459229,18.750916 465.766693,23.845966 471.038086,28.970709 
	C471.002014,29.000399 471.067017,28.933762 471.051392,29.322544 
	C472.384979,33.537186 472.668213,38.158203 478.133209,39.339096 
	C478.949127,42.087406 479.442413,44.588741 480.344604,46.932674 
	C480.913330,48.410240 482.093903,49.652302 483.000000,51.000008 
	C483.000000,53.370556 483.000000,55.741116 482.657776,58.610794 
	C480.434479,60.777733 480.311310,62.136246 483.000000,63.000000 
	C483.000000,69.354401 483.000000,75.708794 482.655029,82.577972 
	C481.565826,85.400009 480.821625,87.707268 479.714233,90.069580 
	C477.540131,93.124504 475.627472,96.068680 473.946167,99.139542 
	C472.179962,102.365517 470.635376,105.712845 468.613068,109.010582 
	C466.706879,110.436905 465.307648,112.033157 463.633148,113.250839 
	C458.146729,117.240593 452.479706,120.985657 447.060760,125.062271 
	C445.412476,126.302269 444.342163,128.310532 442.781372,130.001297 
	C442.555603,130.035660 442.101654,130.085754 441.815674,129.829666 
	C437.561493,130.286667 433.581512,130.945862 429.644897,131.803894 
	C429.287384,131.881805 429.208344,133.237610 429.000000,134.000000 
M209.137222,89.902245 
	C202.827515,94.875931 195.554367,92.811317 188.056183,93.184967 
	C188.056183,84.606735 188.056305,76.484215 188.056137,68.361694 
	C188.055969,60.957481 189.142731,60.198212 196.063522,62.763371 
	C196.687088,62.994492 197.316422,63.210098 197.943726,63.431057 
	C204.373871,65.696014 208.573380,63.469112 210.571045,56.591389 
	C203.205307,59.746075 195.208130,49.472488 188.468262,58.934071 
	C188.468262,52.995964 188.468262,48.090126 188.468262,42.473343 
	C195.014297,43.173283 201.061035,43.819832 208.140854,44.576843 
	C208.989899,42.880825 210.474136,39.916000 212.024551,36.818966 
	C199.210831,36.818966 187.097656,36.818966 175.870712,36.818966 
	C176.609726,41.150208 177.833649,45.259739 177.918884,49.392754 
	C178.183411,62.217602 178.151794,75.053802 177.923599,87.880058 
	C177.863098,91.281097 176.681976,94.662201 175.308182,98.406303 
	C172.094894,101.353661 171.845215,97.842751 171.104630,96.290138 
	C165.282501,84.084442 159.598434,71.808594 148.770447,64.134071 
	C155.514145,54.302811 161.971405,44.452652 168.904495,34.949646 
	C172.900131,29.472944 177.664963,24.557428 181.859070,19.651897 
	C174.108994,18.973934 167.293930,22.739206 161.552261,29.119581 
	C157.473633,26.231375 153.393738,25.863447 149.360992,28.600435 
	C145.672272,31.103945 143.855118,34.593765 144.238983,39.282867 
	C149.608429,36.645473 152.249008,37.217709 152.827866,41.329655 
	C153.845871,48.561039 150.214264,54.154823 145.714325,59.284233 
	C142.417404,63.042355 139.342072,58.647541 136.120636,58.887962 
	C135.718826,58.917946 135.281937,58.477901 134.462570,58.044952 
	C135.427689,46.531338 131.899887,34.174023 141.686142,23.665531 
	C126.182549,21.684153 112.173904,23.243984 100.019669,32.928982 
	C95.637756,36.420670 93.253502,41.103539 93.652855,46.905289 
	C94.056023,52.762268 97.693802,56.322628 103.198769,56.275970 
	C109.173958,56.225327 113.373711,52.151188 113.538414,46.813015 
	C111.660469,46.553928 108.977951,46.927376 108.248138,45.905800 
	C107.199867,44.438446 107.307510,41.937035 107.441864,39.911541 
	C107.521858,38.705654 108.414871,37.409573 109.256279,36.421295 
	C115.541603,29.038795 123.926819,26.961691 133.457230,27.219500 
	C131.911423,29.853228 130.151794,32.226181 127.854332,33.827503 
	C125.470100,35.489315 122.565247,36.404171 120.032715,37.578629 
	C124.808113,43.891762 123.441635,51.225967 123.615105,58.025635 
	C120.212044,59.238365 117.234589,59.900127 114.660980,61.302837 
	C109.863190,63.917812 109.990181,68.349266 114.938446,70.706467 
	C117.583199,71.966347 120.601311,72.442497 123.745567,73.358147 
	C123.745567,77.170807 123.986572,81.006630 123.688736,84.800140 
	C123.248749,90.404060 123.112823,96.172470 121.599434,101.517471 
	C119.499039,108.935616 113.443962,112.128433 106.812935,110.262779 
	C105.409302,108.180199 103.765778,106.255013 101.684448,105.168320 
	C101.124832,104.876137 98.478615,106.921715 98.100594,108.263351 
	C97.117828,111.751366 99.235100,114.142830 102.452736,114.955864 
	C105.126686,115.631523 108.072090,115.948540 110.783112,115.581459 
	C114.205315,115.118073 117.665916,114.143738 120.816513,112.733994 
	C123.112160,111.706802 124.783737,109.346527 127.026993,108.115173 
	C128.187073,107.478394 130.325577,107.443634 131.431274,108.112877 
	C134.561829,110.007675 137.536209,110.046417 139.634415,109.572708 
	C137.900055,103.527786 135.901062,98.224548 134.953018,92.739662 
	C134.167984,88.197792 135.075546,83.376770 134.419327,78.796013 
	C133.497879,72.363609 136.423584,69.357910 142.803040,68.011421 
	C144.732361,70.785355 147.072281,73.610504 148.814713,76.765625 
	C152.593292,83.607704 155.751968,90.806755 159.760818,97.502579 
	C163.153107,103.168610 166.841461,108.851875 171.376205,113.592567 
	C177.733521,120.238617 186.086807,121.984360 194.824051,119.036095 
	C196.930237,118.325394 198.236343,115.243622 199.910385,113.252243 
	C197.619354,111.704887 195.454956,109.883972 192.978348,108.737518 
	C191.906128,108.241158 190.189972,109.135849 189.172119,109.323769 
	C189.172119,111.481148 189.687775,114.350327 189.071640,114.618423 
	C187.473831,115.313660 184.997696,115.551628 183.547836,114.750015 
	C177.868652,111.610092 175.716934,105.803238 173.001953,100.111076 
	C174.371628,99.967178 175.186996,99.881516 176.922775,99.983208 
	C187.610779,100.001419 198.298798,100.019630 209.302612,100.428970 
	C209.755768,99.950195 210.208939,99.471413 210.948105,98.227585 
	C211.289413,95.815826 211.630722,93.404060 212.322220,90.409607 
	C212.541153,89.136108 212.760101,87.862610 212.979034,86.589111 
	C212.748917,86.507736 212.518814,86.426369 212.288696,86.344994 
	C211.468079,87.446220 210.647461,88.547440 209.137222,89.902245 
M310.197205,28.030260 
	C305.551849,30.424412 300.906525,32.818565 296.799194,34.935421 
	C297.603485,37.785332 299.086792,40.702427 299.149048,43.649544 
	C299.497101,60.123646 299.664551,76.606697 299.493561,93.082535 
	C299.456940,96.608154 298.217377,100.319695 296.741577,103.588753 
	C294.057617,109.533989 289.246094,111.768288 282.203827,110.947769 
	C282.144745,110.231384 282.372101,109.203049 281.959717,108.711571 
	C280.809998,107.341393 279.521729,105.448547 278.044159,105.197418 
	C276.891052,105.001434 274.158783,107.090218 274.252319,107.926094 
	C274.498291,110.125015 275.341187,112.911484 276.955322,114.175499 
	C281.135620,117.449127 298.557190,114.685135 302.105957,110.628677 
	C302.402466,110.289719 302.433533,109.716621 302.582153,109.250450 
	C303.614258,106.013023 305.147400,106.054260 307.651611,108.063293 
	C310.411682,110.277596 313.624786,110.176735 318.205841,108.818535 
	C311.090210,103.588699 310.765625,96.829437 310.741547,90.181335 
	C310.670959,70.699936 310.867584,51.217636 310.918823,31.735580 
	C310.922577,30.317814 310.599426,28.899183 310.653687,27.451603 
	C310.653687,27.451603 310.547882,27.613819 310.547882,27.613819 
	C310.547882,27.613819 310.510803,27.401386 310.197205,28.030260 
M386.375244,86.035484 
	C382.939941,76.668747 379.357544,67.351097 376.200134,57.891602 
	C375.607208,56.115120 376.051575,53.292305 377.152771,51.778069 
	C380.870483,46.665836 385.099396,41.925331 389.127594,37.049053 
	C384.153412,37.049053 379.215149,37.049053 374.790405,37.049053 
	C373.617340,47.203056 365.857391,52.682671 360.522644,59.794380 
	C360.580719,52.059250 358.116516,44.186787 363.299042,37.078453 
	C357.634094,37.078453 352.268372,37.078453 348.236786,37.078453 
	C350.878204,58.210724 351.047852,79.013351 348.167297,99.777252 
	C352.294800,99.777252 357.710083,99.777252 363.261139,99.777252 
	C356.815918,89.343239 358.891602,70.897507 367.487244,63.968674 
	C370.694977,73.200401 374.032837,82.215446 376.879791,91.382935 
	C377.668793,93.923683 376.999878,96.917206 376.999878,99.843002 
	C382.070587,99.843002 387.846741,99.843002 393.115173,99.843002 
	C390.999023,95.509735 388.855804,91.120995 386.375244,86.035484 
M250.911835,57.533463 
	C254.628586,50.631737 258.345337,43.730011 261.982666,36.975739 
	C258.114594,36.975739 253.826599,36.975739 249.978928,36.975739 
	C250.004288,46.468037 244.041107,53.206264 240.428711,62.494377 
	C236.935165,52.930408 230.456909,46.303200 231.031219,37.153305 
	C225.522202,37.153305 220.202362,37.153305 214.482101,37.153305 
	C231.097763,53.141834 239.485779,85.022530 231.333908,99.696411 
	C236.802353,99.696411 242.318893,99.696411 247.550446,99.696411 
	C246.642273,97.406769 245.243530,95.353546 245.071365,93.202156 
	C244.104767,81.125023 242.752090,68.915672 250.911835,57.533463 
M278.500793,23.906853 
	C271.019989,28.114109 265.508728,33.804863 264.892548,42.864323 
	C264.477661,48.964531 267.658020,53.009045 272.896240,53.564316 
	C278.681824,54.177601 283.887329,50.079216 284.673737,44.291634 
	C278.671173,44.414982 276.659760,41.705360 278.784668,36.012447 
	C279.462402,34.196720 280.555267,32.398193 281.877838,30.984381 
	C288.096069,24.337269 303.826569,21.234659 312.229889,24.836155 
	C317.139801,26.940447 317.680573,29.358456 313.079437,33.785995 
	C316.325684,33.785995 318.664398,34.007622 320.942139,33.729664 
	C323.763458,33.385357 326.525543,32.191441 329.328674,32.135345 
	C335.737915,32.007099 341.691345,30.507837 346.222382,25.990246 
	C348.251556,23.967079 349.597168,20.710352 350.060120,17.822203 
	C350.501587,15.068220 348.219879,13.425237 345.435699,14.836198 
	C341.467133,16.847404 342.917908,19.139807 346.199005,21.797659 
	C343.401978,23.322550 340.686646,25.060520 338.174896,24.804098 
	C331.609100,24.133799 325.039246,22.955856 318.639374,21.321140 
	C305.183838,17.884218 292.035858,17.600515 278.500793,23.906853 
M326.866455,43.205364 
	C326.975494,58.011311 327.246002,72.818970 327.088928,87.622086 
	C327.045471,91.720589 325.731171,95.805603 325.030518,99.725800 
	C329.620605,99.725800 335.154633,99.725800 340.882660,99.725800 
	C335.971863,92.814735 335.716217,46.110638 340.328857,37.130798 
	C335.007263,37.130798 329.683350,37.130798 324.214233,37.130798 
	C325.157013,39.118263 325.925293,40.737801 326.866455,43.205364 
z"/>
<path fill="#000000" opacity="1.000000" stroke="none" 
	d="
M32.950520,9.943008 
	C22.620796,14.714938 15.698432,22.980114 10.057236,32.486572 
	C8.802895,34.600368 8.075280,37.026726 6.703207,39.730251 
	C5.432776,41.594810 4.617523,43.074028 3.679765,44.471016 
	C2.857943,45.695293 1.898597,46.827259 1.000000,48.000000 
	C1.000000,32.406612 1.000000,16.813225 1.000000,1.000000 
	C16.353529,1.000000 31.708105,1.000000 47.480072,1.353860 
	C46.481216,2.453431 45.050625,3.173282 43.651546,3.949909 
	C40.077045,5.934114 36.516594,7.943623 32.950520,9.943008 
z"/>
<path fill="#000000" opacity="1.000000" stroke="none" 
	d="
M483.000000,50.531349 
	C482.093903,49.652302 480.913330,48.410240 480.344604,46.932674 
	C479.442413,44.588741 478.949127,42.087406 478.016846,39.008675 
	C475.522919,35.221043 473.294952,32.077404 471.067017,28.933764 
	C471.067017,28.933762 471.002014,29.000399 471.040436,28.607145 
	C466.086548,23.124071 461.094208,18.034250 455.972595,12.729591 
	C455.589661,12.299760 455.336060,12.084767 454.873627,11.607887 
	C452.472778,10.224535 450.280823,9.103068 447.860962,7.717844 
	C444.088715,5.302722 440.544373,3.151359 437.000000,0.999998 
	C452.263123,1.000000 467.526215,1.000000 483.000000,1.000000 
	C483.000000,17.353624 483.000000,33.708153 483.000000,50.531349 
z"/>
<path fill="#000000" opacity="1.000000" stroke="none" 
	d="
M442.101654,130.085754 
	C442.101654,130.085754 442.555603,130.035660 443.138123,129.972687 
	C445.047638,129.264984 446.436096,128.721542 447.691528,127.959045 
	C455.717041,123.084656 463.602722,118.030167 469.268311,109.953552 
	C469.746613,109.625565 469.955353,109.374290 470.368286,108.865860 
	C473.778351,102.441895 476.927887,96.228210 480.077423,90.014526 
	C480.821625,87.707268 481.565826,85.400009 482.655029,83.046379 
	C483.000000,99.922958 483.000000,116.845917 483.000000,134.000000 
	C467.979889,134.000000 452.958618,134.000000 437.511963,133.663559 
	C438.758301,132.246674 440.429993,131.166214 442.101654,130.085754 
z"/>
<path fill="#000000" opacity="1.000000" stroke="none" 
	d="
M9.987091,103.073334 
	C14.777219,108.624199 19.567347,114.175064 24.828287,120.180450 
	C30.583895,123.820648 35.879982,126.987801 41.147694,130.201462 
	C43.132290,131.412201 45.051163,132.730652 47.000000,134.000000 
	C31.739950,134.000000 16.479902,134.000000 1.000000,134.000000 
	C1.000000,118.979820 1.000000,103.958572 1.354860,88.514267 
	C2.453565,89.516762 3.164770,90.960518 3.947649,92.364304 
	C5.943731,95.943497 7.971813,99.504845 9.987091,103.073334 
z"/>
<path fill="#15313C" opacity="1.000000" stroke="none" 
	d="
M10.129122,102.738800 
	C7.971813,99.504845 5.943731,95.943497 3.947649,92.364304 
	C3.164770,90.960518 2.453565,89.516762 1.354860,88.045609 
	C1.000000,82.311958 1.000000,76.623917 1.000000,70.467941 
	C1.662986,72.178673 2.324237,74.357872 2.989300,76.535912 
	C4.683513,82.084358 6.442979,87.613976 8.049305,93.187737 
	C8.923588,96.221390 9.538990,99.329659 10.129122,102.738800 
z"/>
<path fill="#133237" opacity="1.000000" stroke="none" 
	d="
M47.333332,134.000000 
	C45.051163,132.730652 43.132290,131.412201 41.147694,130.201462 
	C35.879982,126.987801 30.583895,123.820648 25.122284,120.343994 
	C25.372118,119.843597 25.956366,119.337265 26.202538,119.467911 
	C33.686150,123.439865 41.136505,127.474487 48.779377,132.097290 
	C48.977806,133.130142 48.988903,133.565079 49.000000,134.000000 
	C48.555553,134.000000 48.111111,134.000000 47.333332,134.000000 
z"/>
<path fill="#152B35" opacity="1.000000" stroke="none" 
	d="
M33.184048,10.160806 
	C36.516594,7.943623 40.077045,5.934114 43.651546,3.949909 
	C45.050625,3.173282 46.481216,2.453431 47.948730,1.353860 
	C48.750000,1.000000 49.500000,1.000000 50.625000,1.000001 
	C49.798466,2.319236 48.842136,4.172186 47.349552,4.857935 
	C42.816864,6.940419 38.076847,8.571636 33.184048,10.160806 
z"/>
<path fill="#113136" opacity="1.000000" stroke="none" 
	d="
M441.815674,129.829666 
	C440.429993,131.166214 438.758301,132.246674 437.043335,133.663559 
	C434.629425,134.000000 432.258881,134.000000 429.444153,134.000000 
	C429.208344,133.237610 429.287384,131.881805 429.644897,131.803894 
	C433.581512,130.945862 437.561493,130.286667 441.815674,129.829666 
z"/>
<path fill="#122F3D" opacity="1.000000" stroke="none" 
	d="
M436.600006,0.999998 
	C440.544373,3.151359 444.088715,5.302722 447.480011,7.723454 
	C445.881378,7.661685 444.435791,7.330548 442.990234,6.999409 
	C440.444885,6.313476 437.807587,5.847311 435.397339,4.838579 
	C434.365112,4.406562 433.805511,2.845265 433.015564,1.398542 
	C434.066681,1.000000 435.133331,1.000000 436.600006,0.999998 
z"/>
<path fill="#182D3A" opacity="1.000000" stroke="none" 
	d="
M1.000000,48.399994 
	C1.898597,46.827259 2.857943,45.695293 3.679765,44.471016 
	C4.617523,43.074028 5.432776,41.594810 6.652768,40.091984 
	C5.210970,43.913082 3.417672,47.793530 1.312187,51.836987 
	C1.000000,50.933331 1.000000,49.866661 1.000000,48.399994 
z"/>
<path fill="#000000" opacity="1.000000" stroke="none" 
	d="
M483.000000,62.600006 
	C480.311310,62.136246 480.434479,60.777733 482.657776,59.054955 
	C483.000000,60.066669 483.000000,61.133339 483.000000,62.600006 
z"/>
<path fill="#000000" opacity="1.000000" stroke="none" 
	d="
M49.375000,134.000000 
	C48.988903,133.565079 48.977806,133.130142 48.999523,132.369598 
	C49.991756,132.469070 50.951176,132.894196 51.955299,133.659653 
	C51.250000,134.000000 50.500000,134.000000 49.375000,134.000000 
z"/>
<path fill="#182D3A" opacity="1.000000" stroke="none" 
	d="
M1.000000,53.333332 
	C1.469093,53.318123 1.938186,53.636250 2.407278,53.954376 
	C2.119900,54.265575 1.832521,54.576771 1.272572,54.943985 
	C1.000000,54.555553 1.000000,54.111111 1.000000,53.333332 
z"/>
<path fill="#F3F3F4" opacity="1.000000" stroke="none" 
	d="
M176.002350,99.795853 
	C175.186996,99.881516 174.371628,99.967178 173.001953,100.111076 
	C175.716934,105.803238 177.868652,111.610092 183.547836,114.750015 
	C184.997696,115.551628 187.473831,115.313660 189.071640,114.618423 
	C189.687775,114.350327 189.172119,111.481148 189.172119,109.323769 
	C190.189972,109.135849 191.906128,108.241158 192.978348,108.737518 
	C195.454956,109.883972 197.619354,111.704887 199.910385,113.252243 
	C198.236343,115.243622 196.930237,118.325394 194.824051,119.036095 
	C186.086807,121.984360 177.733521,120.238617 171.376205,113.592567 
	C166.841461,108.851875 163.153107,103.168610 159.760818,97.502579 
	C155.751968,90.806755 152.593292,83.607704 148.814713,76.765625 
	C147.072281,73.610504 144.732361,70.785355 142.803040,68.011421 
	C136.423584,69.357910 133.497879,72.363609 134.419327,78.796013 
	C135.075546,83.376770 134.167984,88.197792 134.953018,92.739662 
	C135.901062,98.224548 137.900055,103.527786 139.634415,109.572708 
	C137.536209,110.046417 134.561829,110.007675 131.431274,108.112877 
	C130.325577,107.443634 128.187073,107.478394 127.026993,108.115173 
	C124.783737,109.346527 123.112160,111.706802 120.816513,112.733994 
	C117.665916,114.143738 114.205315,115.118073 110.783112,115.581459 
	C108.072090,115.948540 105.126686,115.631523 102.452736,114.955864 
	C99.235100,114.142830 97.117828,111.751366 98.100594,108.263351 
	C98.478615,106.921715 101.124832,104.876137 101.684448,105.168320 
	C103.765778,106.255013 105.409302,108.180199 106.812935,110.262779 
	C113.443962,112.128433 119.499039,108.935616 121.599434,101.517471 
	C123.112823,96.172470 123.248749,90.404060 123.688736,84.800140 
	C123.986572,81.006630 123.745567,77.170807 123.745567,73.358147 
	C120.601311,72.442497 117.583199,71.966347 114.938446,70.706467 
	C109.990181,68.349266 109.863190,63.917812 114.660980,61.302837 
	C117.234589,59.900127 120.212044,59.238365 123.615105,58.025635 
	C123.441635,51.225967 124.808113,43.891762 120.032715,37.578629 
	C122.565247,36.404171 125.470100,35.489315 127.854332,33.827503 
	C130.151794,32.226181 131.911423,29.853228 133.457230,27.219500 
	C123.926819,26.961691 115.541603,29.038795 109.256279,36.421295 
	C108.414871,37.409573 107.521858,38.705654 107.441864,39.911541 
	C107.307510,41.937035 107.199867,44.438446 108.248138,45.905800 
	C108.977951,46.927376 111.660469,46.553928 113.538414,46.813015 
	C113.373711,52.151188 109.173958,56.225327 103.198769,56.275970 
	C97.693802,56.322628 94.056023,52.762268 93.652855,46.905289 
	C93.253502,41.103539 95.637756,36.420670 100.019669,32.928982 
	C112.173904,23.243984 126.182549,21.684153 141.686142,23.665531 
	C131.899887,34.174023 135.427689,46.531338 134.462570,58.044952 
	C135.281937,58.477901 135.718826,58.917946 136.120636,58.887962 
	C139.342072,58.647541 142.417404,63.042355 145.714325,59.284233 
	C150.214264,54.154823 153.845871,48.561039 152.827866,41.329655 
	C152.249008,37.217709 149.608429,36.645473 144.238983,39.282867 
	C143.855118,34.593765 145.672272,31.103945 149.360992,28.600435 
	C153.393738,25.863447 157.473633,26.231375 161.552261,29.119581 
	C167.293930,22.739206 174.108994,18.973934 181.859070,19.651897 
	C177.664963,24.557428 172.900131,29.472944 168.904495,34.949646 
	C161.971405,44.452652 155.514145,54.302811 148.770447,64.134071 
	C159.598434,71.808594 165.282501,84.084442 171.104630,96.290138 
	C171.845215,97.842751 172.094894,101.353661 175.663452,98.519966 
	C176.013260,99.021034 176.007797,99.408447 176.002350,99.795853 
z"/>
<path fill="#F5F5F6" opacity="1.000000" stroke="none" 
	d="
M386.543915,86.383865 
	C388.855804,91.120995 390.999023,95.509735 393.115173,99.843002 
	C387.846741,99.843002 382.070587,99.843002 376.999878,99.843002 
	C376.999878,96.917206 377.668793,93.923683 376.879791,91.382935 
	C374.032837,82.215446 370.694977,73.200401 367.487244,63.968674 
	C358.891602,70.897507 356.815918,89.343239 363.261139,99.777252 
	C357.710083,99.777252 352.294800,99.777252 348.167297,99.777252 
	C351.047852,79.013351 350.878204,58.210724 348.236786,37.078453 
	C352.268372,37.078453 357.634094,37.078453 363.299042,37.078453 
	C358.116516,44.186787 360.580719,52.059250 360.522644,59.794380 
	C365.857391,52.682671 373.617340,47.203056 374.790405,37.049053 
	C379.215149,37.049053 384.153412,37.049053 389.127594,37.049053 
	C385.099396,41.925331 380.870483,46.665836 377.152771,51.778069 
	C376.051575,53.292305 375.607208,56.115120 376.200134,57.891602 
	C379.357544,67.351097 382.939941,76.668747 386.543915,86.383865 
z"/>
<path fill="#F1F2F3" opacity="1.000000" stroke="none" 
	d="
M310.428253,27.480953 
	C310.599426,28.899183 310.922577,30.317814 310.918823,31.735580 
	C310.867584,51.217636 310.670959,70.699936 310.741547,90.181335 
	C310.765625,96.829437 311.090210,103.588699 318.205841,108.818535 
	C313.624786,110.176735 310.411682,110.277596 307.651611,108.063293 
	C305.147400,106.054260 303.614258,106.013023 302.582153,109.250450 
	C302.433533,109.716621 302.402466,110.289719 302.105957,110.628677 
	C298.557190,114.685135 281.135620,117.449127 276.955322,114.175499 
	C275.341187,112.911484 274.498291,110.125015 274.252319,107.926094 
	C274.158783,107.090218 276.891052,105.001434 278.044159,105.197418 
	C279.521729,105.448547 280.809998,107.341393 281.959717,108.711571 
	C282.372101,109.203049 282.144745,110.231384 282.203827,110.947769 
	C289.246094,111.768288 294.057617,109.533989 296.741577,103.588753 
	C298.217377,100.319695 299.456940,96.608154 299.493561,93.082535 
	C299.664551,76.606697 299.497101,60.123646 299.149048,43.649544 
	C299.086792,40.702427 297.603485,37.785332 296.799194,34.935421 
	C300.906525,32.818565 305.551849,30.424412 310.369873,27.773590 
	C310.542542,27.516918 310.428253,27.480955 310.428253,27.480953 
z"/>
<path fill="#F5F6F7" opacity="1.000000" stroke="none" 
	d="
M176.462555,99.889526 
	C176.007797,99.408447 176.013260,99.021034 176.017059,98.343048 
	C176.681976,94.662201 177.863098,91.281097 177.923599,87.880058 
	C178.151794,75.053802 178.183411,62.217602 177.918884,49.392754 
	C177.833649,45.259739 176.609726,41.150208 175.870712,36.818966 
	C187.097656,36.818966 199.210831,36.818966 212.024551,36.818966 
	C210.474136,39.916000 208.989899,42.880825 208.140854,44.576843 
	C201.061035,43.819832 195.014297,43.173283 188.468262,42.473343 
	C188.468262,48.090126 188.468262,52.995964 188.468262,58.934071 
	C195.208130,49.472488 203.205307,59.746075 210.571045,56.591389 
	C208.573380,63.469112 204.373871,65.696014 197.943726,63.431057 
	C197.316422,63.210098 196.687088,62.994492 196.063522,62.763371 
	C189.142731,60.198212 188.055969,60.957481 188.056137,68.361694 
	C188.056305,76.484215 188.056183,84.606735 188.056183,93.184967 
	C195.554367,92.811317 202.827515,94.875931 209.672150,90.045792 
	C210.795380,90.456993 211.383713,90.724648 211.972031,90.992302 
	C211.630722,93.404060 211.289413,95.815826 210.550598,98.656860 
	C209.764328,99.403366 209.375565,99.720604 208.986801,100.037842 
	C198.298798,100.019630 187.610779,100.001419 176.462555,99.889526 
z"/>
<path fill="#F2F3F4" opacity="1.000000" stroke="none" 
	d="
M250.733292,57.860970 
	C242.752090,68.915672 244.104767,81.125023 245.071365,93.202156 
	C245.243530,95.353546 246.642273,97.406769 247.550446,99.696411 
	C242.318893,99.696411 236.802353,99.696411 231.333908,99.696411 
	C239.485779,85.022530 231.097763,53.141834 214.482101,37.153305 
	C220.202362,37.153305 225.522202,37.153305 231.031219,37.153305 
	C230.456909,46.303200 236.935165,52.930408 240.428711,62.494377 
	C244.041107,53.206264 250.004288,46.468037 249.978928,36.975739 
	C253.826599,36.975739 258.114594,36.975739 261.982666,36.975739 
	C258.345337,43.730011 254.628586,50.631737 250.733292,57.860970 
z"/>
<path fill="#F1F1F3" opacity="1.000000" stroke="none" 
	d="
M278.842773,23.752972 
	C292.035858,17.600515 305.183838,17.884218 318.639374,21.321140 
	C325.039246,22.955856 331.609100,24.133799 338.174896,24.804098 
	C340.686646,25.060520 343.401978,23.322550 346.199005,21.797659 
	C342.917908,19.139807 341.467133,16.847404 345.435699,14.836198 
	C348.219879,13.425237 350.501587,15.068220 350.060120,17.822203 
	C349.597168,20.710352 348.251556,23.967079 346.222382,25.990246 
	C341.691345,30.507837 335.737915,32.007099 329.328674,32.135345 
	C326.525543,32.191441 323.763458,33.385357 320.942139,33.729664 
	C318.664398,34.007622 316.325684,33.785995 313.079437,33.785995 
	C317.680573,29.358456 317.139801,26.940447 312.229889,24.836155 
	C303.826569,21.234659 288.096069,24.337269 281.877838,30.984381 
	C280.555267,32.398193 279.462402,34.196720 278.784668,36.012447 
	C276.659760,41.705360 278.671173,44.414982 284.673737,44.291634 
	C283.887329,50.079216 278.681824,54.177601 272.896240,53.564316 
	C267.658020,53.009045 264.477661,48.964531 264.892548,42.864323 
	C265.508728,33.804863 271.019989,28.114109 278.842773,23.752972 
z"/>
<path fill="#F4F5F5" opacity="1.000000" stroke="none" 
	d="
M326.780029,42.781349 
	C325.925293,40.737801 325.157013,39.118263 324.214233,37.130798 
	C329.683350,37.130798 335.007263,37.130798 340.328857,37.130798 
	C335.716217,46.110638 335.971863,92.814735 340.882660,99.725800 
	C335.154633,99.725800 329.620605,99.725800 325.030518,99.725800 
	C325.731171,95.805603 327.045471,91.720589 327.088928,87.622086 
	C327.246002,72.818970 326.975494,58.011311 326.780029,42.781349 
z"/>
<path fill="#113136" opacity="1.000000" stroke="none" 
	d="
M469.055176,110.077110 
	C463.602722,118.030167 455.717041,123.084656 447.691528,127.959045 
	C446.436096,128.721542 445.047638,129.264984 443.363892,129.938324 
	C444.342163,128.310532 445.412476,126.302269 447.060760,125.062271 
	C452.479706,120.985657 458.146729,117.240593 463.633148,113.250839 
	C465.307648,112.033157 466.706879,110.436905 468.615967,109.007011 
	C468.999786,109.000008 468.994507,109.004547 469.005188,109.272949 
	C469.028931,109.719933 469.042053,109.898521 469.055176,110.077110 
z"/>
<path fill="#182F3A" opacity="1.000000" stroke="none" 
	d="
M479.714233,90.069580 
	C476.927887,96.228210 473.778351,102.441895 470.089966,108.839157 
	C469.365509,109.016670 469.179993,109.010605 468.994507,109.004547 
	C468.994507,109.004547 468.999786,109.000008 468.996887,109.003578 
	C470.635376,105.712845 472.179962,102.365517 473.946167,99.139542 
	C475.627472,96.068680 477.540131,93.124504 479.714233,90.069580 
z"/>
<path fill="#102C31" opacity="1.000000" stroke="none" 
	d="
M456.101898,12.944427 
	C461.094208,18.034250 466.086548,23.124071 471.076508,28.577456 
	C465.766693,23.845966 460.459229,18.750916 455.075867,13.327950 
	C455.000000,13.000035 455.001953,13.003555 455.277222,12.994257 
	C455.735657,12.971448 455.918762,12.957936 456.101898,12.944427 
z"/>
<path fill="#102332" opacity="1.000000" stroke="none" 
	d="
M442.997803,7.388510 
	C444.435791,7.330548 445.881378,7.661685 447.707886,7.987212 
	C450.280823,9.103068 452.472778,10.224535 454.843903,11.891427 
	C455.015991,12.625754 455.008972,12.814654 455.001953,13.003555 
	C455.001953,13.003555 455.000000,13.000035 455.002319,13.001402 
	C451.579346,12.307060 448.104889,11.778331 444.764038,10.795548 
	C443.952118,10.556713 443.579803,8.823624 442.997803,7.388510 
z"/>
<path fill="#102C31" opacity="1.000000" stroke="none" 
	d="
M471.051392,29.322546 
	C473.294952,32.077404 475.522919,35.221043 477.867249,38.695099 
	C472.668213,38.158203 472.384979,33.537186 471.051392,29.322546 
z"/>
<path fill="#F3F3F4" opacity="1.000000" stroke="none" 
	d="
M212.147125,90.700958 
	C211.383713,90.724648 210.795380,90.456993 210.016953,89.919006 
	C210.647461,88.547440 211.468079,87.446220 212.288696,86.344994 
	C212.518814,86.426369 212.748917,86.507736 212.979034,86.589111 
	C212.760101,87.862610 212.541153,89.136108 212.147125,90.700958 
z"/>
<path fill="#F3F3F4" opacity="1.000000" stroke="none" 
	d="
M209.144714,100.233406 
	C209.375565,99.720604 209.764328,99.403366 210.407593,99.039383 
	C210.208939,99.471413 209.755768,99.950195 209.144714,100.233406 
z"/>
<path fill="#F1F2F3" opacity="1.000000" stroke="none" 
	d="
M310.526672,27.459152 
	C310.510803,27.401386 310.547882,27.613819 310.547882,27.613819 
	C310.547882,27.613819 310.653687,27.451603 310.540955,27.466278 
	C310.428253,27.480955 310.542542,27.516918 310.526672,27.459152 
z"/>
<path fill="#191A35" opacity="1.000000" stroke="none" 
	d="
M455.277222,12.994257 
	C455.008972,12.814654 455.015991,12.625754 455.052765,12.153314 
	C455.336060,12.084767 455.589661,12.299760 455.972595,12.729589 
	C455.918762,12.957936 455.735657,12.971448 455.277222,12.994257 
z"/>
<path fill="#191A35" opacity="1.000000" stroke="none" 
	d="
M469.005188,109.272949 
	C469.179993,109.010605 469.365509,109.016670 469.829407,109.049446 
	C469.955353,109.374290 469.746613,109.625565 469.268311,109.953552 
	C469.042053,109.898521 469.028931,109.719933 469.005188,109.272949 
z"/>
</svg>