<svg version="1.1" xmlns="http://www.w3.org/2000/svg" width="484" height="484">
<path d="M0 0 C0.96594086 0.00054382 1.93188171 0.00108765 2.92709351 0.00164795 C27.00581868 0.06378531 49.59784809 3.41705737 72.6875 10.375 C73.9242749 10.74334961 73.9242749 10.74334961 75.18603516 11.11914062 C108.88502982 21.39628324 140.73171771 40.25274336 166.03564453 64.77441406 C167.23155315 65.93320462 168.43389278 67.08537032 169.64013672 68.23339844 C180.10017227 78.21081236 189.35046947 88.56255314 197.6875 100.375 C198.14205566 101.01679199 198.59661133 101.65858398 199.06494141 102.31982422 C205.59691116 111.62962026 211.38855139 121.3158995 216.6875 131.375 C217.05198242 132.05916992 217.41646484 132.74333984 217.79199219 133.44824219 C229.30139553 155.35978942 236.85820694 179.96474478 240.6875 204.375 C240.87006348 205.53056396 241.05262695 206.68612793 241.24072266 207.87670898 C242.84105387 219.14671737 243.08666633 230.3157749 243.0625 241.6875 C243.06168427 243.13641129 243.06168427 243.13641129 243.06085205 244.61459351 C242.99871469 268.69331868 239.64544263 291.28534809 232.6875 314.375 C232.44193359 315.1995166 232.19636719 316.0240332 231.94335938 316.87353516 C221.66621676 350.57252982 202.80975664 382.41921771 178.28808594 407.72314453 C177.12929538 408.91905315 175.97712968 410.12139278 174.82910156 411.32763672 C164.85168764 421.78767227 154.49994686 431.03796947 142.6875 439.375 C142.04570801 439.82955566 141.40391602 440.28411133 140.74267578 440.75244141 C131.43287974 447.28441116 121.7466005 453.07605139 111.6875 458.375 C111.00333008 458.73948242 110.31916016 459.10396484 109.61425781 459.47949219 C87.70271058 470.98889553 63.09775522 478.54570694 38.6875 482.375 C37.53193604 482.55756348 36.37637207 482.74012695 35.18579102 482.92822266 C23.91578263 484.52855387 12.7467251 484.77416633 1.375 484.75 C0.40905914 484.74945618 -0.55688171 484.74891235 -1.55209351 484.74835205 C-25.63081868 484.68621469 -48.22284809 481.33294263 -71.3125 474.375 C-72.1370166 474.12943359 -72.9615332 473.88386719 -73.81103516 473.63085938 C-107.51002982 463.35371676 -139.35671771 444.49725664 -164.66064453 419.97558594 C-165.85655315 418.81679538 -167.05889278 417.66462968 -168.26513672 416.51660156 C-178.72517227 406.53918764 -187.97546947 396.18744686 -196.3125 384.375 C-196.76705566 383.73320801 -197.22161133 383.09141602 -197.68994141 382.43017578 C-204.22191116 373.12037974 -210.01355139 363.4341005 -215.3125 353.375 C-215.67698242 352.69083008 -216.04146484 352.00666016 -216.41699219 351.30175781 C-227.92639553 329.39021058 -235.48320694 304.78525522 -239.3125 280.375 C-239.49506348 279.21943604 -239.67762695 278.06387207 -239.86572266 276.87329102 C-241.46605387 265.60328263 -241.71166633 254.4342251 -241.6875 243.0625 C-241.68695618 242.09655914 -241.68641235 241.13061829 -241.68585205 240.13540649 C-241.62371469 216.05668132 -238.27044263 193.46465191 -231.3125 170.375 C-230.94415039 169.1382251 -230.94415039 169.1382251 -230.56835938 167.87646484 C-220.29121676 134.17747018 -201.43475664 102.33078229 -176.91308594 77.02685547 C-175.75429538 75.83094685 -174.60212968 74.62860722 -173.45410156 73.42236328 C-163.47668764 62.96232773 -153.12494686 53.71203053 -141.3125 45.375 C-140.67070801 44.92044434 -140.02891602 44.46588867 -139.36767578 43.99755859 C-130.05787974 37.46558884 -120.3716005 31.67394861 -110.3125 26.375 C-109.62833008 26.01051758 -108.94416016 25.64603516 -108.23925781 25.27050781 C-86.32771058 13.76110447 -61.72275522 6.20429306 -37.3125 2.375 C-36.15693604 2.19243652 -35.00137207 2.00987305 -33.81079102 1.82177734 C-22.54078263 0.22144613 -11.3717251 -0.02416633 0 0 Z " fill="#010101" transform="translate(241.3125,-0.375)"/>
<path d="M0 0 C3.42772854 2.90790785 6.73440726 5.91160996 10 9 C11.41732422 10.30324219 11.41732422 10.30324219 12.86328125 11.6328125 C39.52079702 36.70533386 57.67131063 76.51389545 59.12426758 113.13183594 C60.21015775 161.93301796 45.87210903 203.42174029 12 239 C11.28457031 239.77988281 10.56914062 240.55976563 9.83203125 241.36328125 C-16.63868419 269.32390563 -57.66394126 285.19522078 -95.66796875 286.23828125 C-111.17493521 286.4660672 -125.88344964 285.753877 -141 282 C-141.76586426 281.81276367 -142.53172852 281.62552734 -143.32080078 281.43261719 C-168.11776545 275.18889353 -191.18099212 262.51282889 -209.81640625 245.0078125 C-212.01608181 242.93597301 -212.01608181 242.93597301 -214.578125 240.95703125 C-232.39295951 226.56149562 -244.57214074 202.81591684 -253 182 C-253.72316406 180.28296875 -253.72316406 180.28296875 -254.4609375 178.53125 C-258.58197143 168.04134546 -260.20592761 157.0787244 -262 146 C-262.26586914 144.56261475 -262.26586914 144.56261475 -262.53710938 143.09619141 C-268.47438924 103.38280362 -255.8463463 61.53555837 -232.4375 29.5625 C-228.21197247 24.13073606 -223.72952049 18.99663627 -219 14 C-217.80503906 12.70835937 -217.80503906 12.70835937 -216.5859375 11.390625 C-197.59166911 -8.46441084 -172.67874875 -23.19595787 -146.0859375 -30.17578125 C-143.00859596 -30.95805619 -143.00859596 -30.95805619 -140.09765625 -32.00390625 C-93.33104906 -47.04234866 -36.70318628 -30.55318858 0 0 Z " fill="#FEFEFE" transform="translate(344,117)"/>
<path d="M0 0 C0.96594086 0.00054382 1.93188171 0.00108765 2.92709351 0.00164795 C27.00581868 0.06378531 49.59784809 3.41705737 72.6875 10.375 C73.9242749 10.74334961 73.9242749 10.74334961 75.18603516 11.11914062 C108.88502982 21.39628324 140.73171771 40.25274336 166.03564453 64.77441406 C167.23155315 65.93320462 168.43389278 67.08537032 169.64013672 68.23339844 C180.10017227 78.21081236 189.35046947 88.56255314 197.6875 100.375 C198.14205566 101.01679199 198.59661133 101.65858398 199.06494141 102.31982422 C205.59691116 111.62962026 211.38855139 121.3158995 216.6875 131.375 C217.05198242 132.05916992 217.41646484 132.74333984 217.79199219 133.44824219 C229.30139553 155.35978942 236.85820694 179.96474478 240.6875 204.375 C240.87006348 205.53056396 241.05262695 206.68612793 241.24072266 207.87670898 C242.84105387 219.14671737 243.08666633 230.3157749 243.0625 241.6875 C243.06168427 243.13641129 243.06168427 243.13641129 243.06085205 244.61459351 C242.99871469 268.69331868 239.64544263 291.28534809 232.6875 314.375 C232.44193359 315.1995166 232.19636719 316.0240332 231.94335938 316.87353516 C221.66621676 350.57252982 202.80975664 382.41921771 178.28808594 407.72314453 C177.12929538 408.91905315 175.97712968 410.12139278 174.82910156 411.32763672 C164.85168764 421.78767227 154.49994686 431.03796947 142.6875 439.375 C142.04570801 439.82955566 141.40391602 440.28411133 140.74267578 440.75244141 C131.43287974 447.28441116 121.7466005 453.07605139 111.6875 458.375 C111.00333008 458.73948242 110.31916016 459.10396484 109.61425781 459.47949219 C87.70271058 470.98889553 63.09775522 478.54570694 38.6875 482.375 C37.53193604 482.55756348 36.37637207 482.74012695 35.18579102 482.92822266 C23.91578263 484.52855387 12.7467251 484.77416633 1.375 484.75 C0.40905914 484.74945618 -0.55688171 484.74891235 -1.55209351 484.74835205 C-25.63081868 484.68621469 -48.22284809 481.33294263 -71.3125 474.375 C-72.1370166 474.12943359 -72.9615332 473.88386719 -73.81103516 473.63085938 C-107.51002982 463.35371676 -139.35671771 444.49725664 -164.66064453 419.97558594 C-165.85655315 418.81679538 -167.05889278 417.66462968 -168.26513672 416.51660156 C-178.72517227 406.53918764 -187.97546947 396.18744686 -196.3125 384.375 C-196.76705566 383.73320801 -197.22161133 383.09141602 -197.68994141 382.43017578 C-204.22191116 373.12037974 -210.01355139 363.4341005 -215.3125 353.375 C-215.67698242 352.69083008 -216.04146484 352.00666016 -216.41699219 351.30175781 C-227.92639553 329.39021058 -235.48320694 304.78525522 -239.3125 280.375 C-239.49506348 279.21943604 -239.67762695 278.06387207 -239.86572266 276.87329102 C-241.46605387 265.60328263 -241.71166633 254.4342251 -241.6875 243.0625 C-241.68695618 242.09655914 -241.68641235 241.13061829 -241.68585205 240.13540649 C-241.62371469 216.05668132 -238.27044263 193.46465191 -231.3125 170.375 C-230.94415039 169.1382251 -230.94415039 169.1382251 -230.56835938 167.87646484 C-220.29121676 134.17747018 -201.43475664 102.33078229 -176.91308594 77.02685547 C-175.75429538 75.83094685 -174.60212968 74.62860722 -173.45410156 73.42236328 C-163.47668764 62.96232773 -153.12494686 53.71203053 -141.3125 45.375 C-140.67070801 44.92044434 -140.02891602 44.46588867 -139.36767578 43.99755859 C-130.05787974 37.46558884 -120.3716005 31.67394861 -110.3125 26.375 C-109.62833008 26.01051758 -108.94416016 25.64603516 -108.23925781 25.27050781 C-86.32771058 13.76110447 -61.72275522 6.20429306 -37.3125 2.375 C-36.15693604 2.19243652 -35.00137207 2.00987305 -33.81079102 1.82177734 C-22.54078263 0.22144613 -11.3717251 -0.02416633 0 0 Z M-45.3125 39.375 C-46.60051514 39.66383057 -46.60051514 39.66383057 -47.91455078 39.95849609 C-84.61248506 48.34319305 -116.76692583 67.04523695 -143.83691406 92.96240234 C-145.20377014 94.27091149 -146.5818898 95.56762729 -147.9609375 96.86328125 C-154.82293667 103.47634354 -160.64470061 110.73947975 -166.3125 118.375 C-166.71355957 118.91527832 -167.11461914 119.45555664 -167.52783203 120.01220703 C-173.91104733 128.70977315 -179.22763254 137.8791056 -184.3125 147.375 C-184.93125 148.51710938 -185.55 149.65921875 -186.1875 150.8359375 C-193.91669322 165.63872273 -198.89293511 181.07565262 -202.3125 197.375 C-202.68571414 198.97958309 -203.06033768 200.58384035 -203.4375 202.1875 C-203.73036718 203.58308194 -204.02185797 204.97895296 -204.3125 206.375 C-204.48217285 207.11081299 -204.6518457 207.84662598 -204.82666016 208.60473633 C-206.8014392 218.39504789 -206.61439727 228.22243327 -206.57324219 238.16455078 C-206.56254803 241.23620457 -206.57316971 244.30727051 -206.5859375 247.37890625 C-206.59376716 257.90889613 -206.26169535 268.0010472 -204.3125 278.375 C-204.17183105 279.20789551 -204.03116211 280.04079102 -203.88623047 280.89892578 C-196.65983222 322.59923372 -174.98544514 358.94400567 -146.3125 389.375 C-145.58417969 390.15746094 -144.85585937 390.93992187 -144.10546875 391.74609375 C-137.75401093 398.35679474 -130.62677931 403.88380591 -123.3125 409.375 C-122.47976562 410.00277344 -121.64703125 410.63054687 -120.7890625 411.27734375 C-100.25843977 426.1673005 -77.47610825 436.05964603 -53.3125 443.375 C-52.48878906 443.63442383 -51.66507813 443.89384766 -50.81640625 444.16113281 C-35.39912937 448.73999278 -19.80955228 449.8724721 -3.80664062 449.76611328 C-0.94612694 449.75004845 1.91296641 449.76606033 4.7734375 449.78515625 C21.17081761 449.8045632 37.61501277 448.35056731 53.4375 443.8125 C54.32542236 443.56274414 55.21334473 443.31298828 56.12817383 443.05566406 C90.68897707 432.91806839 120.79048225 415.22778317 146.6875 390.375 C147.5125 389.59125 148.3375 388.8075 149.1875 388 C184.07364771 354.08291195 207.20821989 303.17763511 207.99609375 254.5234375 C208.01919113 253.13679398 208.01919113 253.13679398 208.04275513 251.72213745 C208.54143248 214.8719992 203.86932393 180.0236021 185.69238281 147.20068359 C184.65808811 145.3215641 183.66764072 143.42336961 182.6796875 141.51953125 C173.89355707 124.90062835 162.35009743 110.28952073 149.20068359 96.91894531 C147.88330656 95.57478714 146.58984001 94.20727661 145.30078125 92.8359375 C139.53509269 86.80381232 133.10969915 81.73279804 126.4609375 76.72167969 C124.83208973 75.48479583 123.22723876 74.21647641 121.625 72.9453125 C104.77845824 60.09982441 84.79350091 50.83303027 64.6875 44.375 C63.78 44.065625 62.8725 43.75625 61.9375 43.4375 C56.69184373 41.73620607 51.30957432 40.54131775 45.9375 39.3125 C45.23488037 39.14983643 44.53226074 38.98717285 43.80834961 38.81958008 C29.7822395 35.7154798 16.18673627 34.97058593 1.875 35 C0.45127075 35.00031723 0.45127075 35.00031723 -1.0012207 35.00064087 C-16.12372268 35.03422874 -30.53240066 35.93420402 -45.3125 39.375 Z " fill="#FEFEFE" transform="translate(241.3125,-0.375)"/>
<path d="M0 0 C2.34775711 2.06732314 4.64853537 4.18041734 6.9375 6.3125 C7.86393311 7.16521484 7.86393311 7.16521484 8.80908203 8.03515625 C37.30361399 34.50111602 57.50303683 74.16064625 59.06176758 113.44433594 C60.14765775 162.24551796 45.80960903 203.73424029 11.9375 239.3125 C11.22207031 240.09238281 10.50664062 240.87226563 9.76953125 241.67578125 C-16.70118419 269.63640563 -57.72644126 285.50772078 -95.73046875 286.55078125 C-111.23743521 286.7785672 -125.94594964 286.066377 -141.0625 282.3125 C-141.82836426 282.12526367 -142.59422852 281.93802734 -143.38330078 281.74511719 C-168.18026545 275.50139353 -191.24349212 262.82532889 -209.87890625 245.3203125 C-212.07520914 243.25254786 -212.07520914 243.25254786 -214.61328125 241.28515625 C-221.30419016 235.89614668 -224.83871092 230.55762566 -227.0625 222.3125 C-227.3925 221.6525 -227.7225 220.9925 -228.0625 220.3125 C-229.30763255 208.86988948 -226.81298338 200.9337923 -220.16796875 191.671875 C-217.97330757 189.21255153 -215.97290509 187.7617775 -213.125 186.125 C-211.87396484 185.39216797 -211.87396484 185.39216797 -210.59765625 184.64453125 C-204.46707245 181.42337705 -199.91256416 180.77748802 -193.0625 181.3125 C-192.10730469 181.3846875 -191.15210938 181.456875 -190.16796875 181.53125 C-180.59833279 183.03630415 -176.21971811 188.78523792 -170.31689453 195.84033203 C-157.54973991 210.82397204 -134.28024073 221.14524791 -114.98706055 222.72875977 C-110.78201498 222.96439822 -106.58532051 222.97971348 -102.375 222.9375 C-101.63437317 222.93451904 -100.89374634 222.93153809 -100.13067627 222.9284668 C-87.66630755 222.83860451 -76.55086806 221.3422991 -65.0625 216.3125 C-64.34481445 216.00747559 -63.62712891 215.70245117 -62.88769531 215.38818359 C-38.00395794 204.57674506 -20.52347071 185.09076376 -10.0625 160.3125 C-6.12245861 149.43753027 -4.82752842 139.73864575 -4.76733398 128.23291016 C-4.75591247 126.72044445 -4.73562006 125.20801583 -4.70581055 123.69580078 C-4.21853359 98.90728686 -13.50064373 75.61417066 -30.69628906 57.6730957 C-32.13868748 56.20665731 -33.59997412 54.75886538 -35.0625 53.3125 C-35.72765625 52.63703125 -36.3928125 51.9615625 -37.078125 51.265625 C-47.48332969 41.40330055 -60.67515694 35.79454131 -74.0625 31.3125 C-75.13757813 30.93222656 -76.21265625 30.55195313 -77.3203125 30.16015625 C-80.1123051 29.16737662 -80.1123051 29.16737662 -83.375 29.1875 C-89.80325492 27.66215138 -94.19604931 23.23159349 -97.7109375 17.734375 C-102.18603743 9.0945867 -103.75036583 0.01476397 -100.8125 -9.4375 C-97.71798882 -17.60357117 -91.98810515 -24.79484791 -84.25 -29 C-58.01275067 -40.65539345 -19.80238405 -16.89306886 0 0 Z " fill="#D8D8D8" transform="translate(344.0625,116.6875)"/>
<path d="M0 0 C6.15351101 2.77324577 11.09571251 8.06405071 13.58203125 14.34765625 C14.44559515 21.93898542 14.41720641 29.141101 9.58203125 35.34765625 C5.21296555 39.97555285 0.9752932 42.93490352 -5.46875 43.71875 C-12.83866826 43.86879624 -17.84833569 43.389362 -23.41796875 38.34765625 C-28.63682831 33.23585022 -30.70735779 28.31001788 -30.85546875 21.03515625 C-30.73439248 13.89165643 -28.88909575 9.80990569 -23.890625 4.82421875 C-16.89224882 -1.3372015 -9.03439259 -2.43738863 0 0 Z " fill="#232323" transform="translate(250.41796875,220.65234375)"/>
</svg>
